<?xml version="1.0" encoding="UTF-8" standalone="no"?>
<!-- Created with Inkscape (http://www.inkscape.org/) -->
<svg
   xmlns:dc="http://purl.org/dc/elements/1.1/"
   xmlns:cc="http://creativecommons.org/ns#"
   xmlns:rdf="http://www.w3.org/1999/02/22-rdf-syntax-ns#"
   xmlns:svg="http://www.w3.org/2000/svg"
   xmlns="http://www.w3.org/2000/svg"
   xmlns:sodipodi="http://sodipodi.sourceforge.net/DTD/sodipodi-0.dtd"
   xmlns:inkscape="http://www.inkscape.org/namespaces/inkscape"
   width="700"
   height="260"
   id="svg2"
   sodipodi:version="0.32"
   inkscape:version="0.46"
   sodipodi:docname="zine.svg"
   inkscape:output_extension="org.inkscape.output.svg.inkscape"
   version="1.0"
   inkscape:export-filename="/Users/mitsuhiko/Desktop/zine.png"
   inkscape:export-xdpi="105.43"
   inkscape:export-ydpi="105.43">
  <defs
     id="defs4">
    <inkscape:perspective
       sodipodi:type="inkscape:persp3d"
       inkscape:vp_x="0 : 526.18109 : 1"
       inkscape:vp_y="0 : 1000 : 0"
       inkscape:vp_z="744.09448 : 526.18109 : 1"
       inkscape:persp3d-origin="372.04724 : 350.78739 : 1"
       id="perspective10" />
    <inkscape:perspective
       id="perspective3311"
       inkscape:persp3d-origin="372.04724 : 350.78739 : 1"
       inkscape:vp_z="744.09448 : 526.18109 : 1"
       inkscape:vp_y="0 : 1000 : 0"
       inkscape:vp_x="0 : 526.18109 : 1"
       sodipodi:type="inkscape:persp3d" />
  </defs>
  <sodipodi:namedview
     id="base"
     pagecolor="#ffffff"
     bordercolor="#666666"
     borderopacity="1.0"
     gridtolerance="10000"
     guidetolerance="10"
     objecttolerance="10"
     inkscape:pageopacity="0.0"
     inkscape:pageshadow="2"
     inkscape:zoom="1.4"
     inkscape:cx="352.05213"
     inkscape:cy="102.17884"
     inkscape:document-units="px"
     inkscape:current-layer="layer1"
     showgrid="false"
     inkscape:window-width="1440"
     inkscape:window-height="852"
     inkscape:window-x="0"
     inkscape:window-y="22"
     showguides="true"
     inkscape:guide-bbox="true" />
  <metadata
     id="metadata7">
    <rdf:RDF>
      <cc:Work
         rdf:about="">
        <dc:format>image/svg+xml</dc:format>
        <dc:type
           rdf:resource="http://purl.org/dc/dcmitype/StillImage" />
      </cc:Work>
    </rdf:RDF>
  </metadata>
  <g
     inkscape:label="Layer 1"
     inkscape:groupmode="layer"
     id="layer1">
    <path
       style="font-size:12px;font-style:normal;font-weight:normal;fill:#000000;fill-opacity:1;stroke:none;stroke-width:1px;stroke-linecap:butt;stroke-linejoin:miter;stroke-opacity:1;font-family:Bitstream Vera Sans"
       d="M 495.24681,169.98288 C 493.82081,176.87409 491.44453,183.76529 488.11799,190.65646 C 485.02859,197.54766 481.10774,203.72598 476.35542,209.19142 C 471.60265,214.65681 466.25605,218.57767 460.31557,220.95397 C 454.37468,223.3302 447.83994,224.51835 440.71131,224.51838 C 429.06739,224.51835 416.11671,222.97377 401.85922,219.88464 C 387.83906,217.03309 373.10618,213.82513 357.66052,210.26072 C 342.21463,206.69631 326.1748,203.25071 309.54097,199.92393 C 293.14461,196.83478 276.74835,195.05256 260.35208,194.57732 C 259.16393,194.33969 258.33224,193.74563 257.857,192.79512 C 257.61935,191.60698 258.45105,191.01291 260.35208,191.01291 C 266.53037,191.01291 271.9958,188.99308 276.74838,184.95341 C 280.55039,181.86427 286.01581,177.23054 293.14468,171.05219 C 300.51108,164.87392 308.82803,157.86392 318.09555,150.02217 C 327.36295,141.9429 337.10566,133.38831 347.32373,124.35841 C 357.77922,115.32864 367.75957,106.41763 377.26479,97.62532 C 387.00738,88.595591 396.03719,80.041001 404.3543,71.961561 C 412.67111,63.6447 419.32468,56.397087 424.31502,50.218629 C 426.21585,47.842492 427.16637,46.17911 427.16656,45.228447 C 427.16637,43.327593 424.7901,42.377081 420.03772,42.376923 C 407.91856,42.377081 395.20551,42.733524 381.89851,43.446243 C 368.82889,43.921644 357.42278,44.753336 347.68016,45.941335 C 341.0265,46.654361 335.08583,47.842492 329.8581,49.505742 C 324.63022,51.169281 320.59057,53.307923 317.7391,55.921684 C 315.60039,58.060465 314.53106,57.822843 314.53114,55.208795 C 316.43209,51.169281 318.09548,48.080127 319.52132,45.941335 C 320.94701,43.802836 323.20446,42.495889 326.2937,42.020478 C 334.37294,41.307751 343.75921,40.8325 354.45255,40.594715 C 365.38329,40.119622 376.31415,39.763178 387.24514,39.525385 C 393.66092,39.525553 400.78975,39.406735 408.63161,39.16895 C 416.71076,38.931483 424.31483,38.812665 431.44384,38.812507 C 438.57248,38.57504 444.86959,38.456232 450.33522,38.456074 C 455.80044,38.218597 459.24604,38.099779 460.67202,38.09963 C 463.04808,38.099779 464.11739,38.693848 463.87999,39.881837 C 463.87977,41.070125 463.04808,41.783011 461.3849,42.020478 C 460.19654,42.258263 458.88961,42.97115 457.46404,44.15913 C 456.03807,45.10978 454.73112,46.17911 453.54319,47.367092 C 448.07756,51.882168 441.54282,57.58521 433.93892,64.476267 C 426.5723,71.129991 418.37416,78.496421 409.34449,86.575631 C 400.55211,94.41744 391.28465,102.7344 381.54209,111.52653 C 372.03684,120.31883 362.65058,129.22985 353.38322,138.25961 C 344.11567,147.05187 335.08583,155.60646 326.2937,163.92337 C 317.73904,172.24036 310.01616,179.96326 303.12503,187.09205 C 301.93682,188.75545 301.34276,189.9436 301.34281,190.65646 C 301.34276,192.08224 302.41208,193.15155 304.55077,193.86443 C 309.77853,195.29021 317.14498,197.07241 326.65014,199.21106 C 336.39278,201.58733 347.086,203.84478 358.72984,205.98344 C 370.6111,208.12207 382.84889,209.90428 395.44328,211.33005 C 408.03738,212.7558 419.91874,213.46868 431.0874,213.4687 C 449.62213,213.46868 463.64215,209.66665 473.14745,202.06258 C 482.88996,194.4585 489.30589,183.52764 492.39528,169.27 C 492.87028,167.84426 493.46435,167.13138 494.17749,167.13134 C 494.89012,167.13138 495.24656,168.08189 495.24681,169.98288 M 490.15638,68.753581 C 490.15628,71.605251 488.84935,74.456781 486.23553,77.308181 C 483.85918,80.159831 481.12646,81.585581 478.03738,81.585471 C 475.18578,81.585581 473.76003,80.159831 473.76009,77.308181 C 473.76003,74.219141 474.82934,71.248801 476.96806,68.397141 C 479.34425,65.545731 482.19578,64.119966 485.52266,64.119839 C 488.61171,64.119966 490.15628,65.664541 490.15638,68.753581 M 506.19624,148.23996 C 500.49308,155.60646 493.95834,162.61645 486.59197,169.27 C 479.22544,175.92358 472.45307,181.2702 466.27482,185.30985 C 461.52222,188.39901 456.65086,190.77529 451.66073,192.43867 C 446.67052,194.10207 442.1556,194.93376 438.11598,194.93376 C 436.69017,194.93376 435.02678,194.81494 433.1258,194.57732 C 431.22474,194.33969 429.44254,193.74563 427.77918,192.79512 C 426.3534,191.84462 425.04645,190.65648 423.85832,189.23071 C 422.9078,187.56733 422.43255,185.42867 422.43257,182.81476 C 422.43255,179.72562 423.62068,175.56714 425.99697,170.33933 C 428.37322,164.87392 431.10593,159.28969 434.19512,153.58659 C 437.52187,147.88358 440.72984,142.41815 443.81902,137.19029 C 447.14577,131.96255 449.75968,128.04171 451.66073,125.42773 C 452.84883,123.52678 454.86866,121.98221 457.72024,120.794 C 460.80934,119.36831 462.82917,118.65543 463.77974,118.65535 C 464.96781,118.65543 465.56188,119.01187 465.56195,119.72467 C 465.56188,120.20001 465.32426,120.9129 464.84906,121.86331 C 464.61138,122.8139 464.25492,123.52678 463.77974,124.00197 C 460.69052,128.75458 457.48255,133.98238 454.15583,139.68538 C 451.06661,145.38849 448.21509,150.97273 445.60124,156.43812 C 442.98731,161.66597 440.84864,166.5373 439.1853,171.05219 C 437.75949,175.56714 437.04662,179.13156 437.04665,181.74543 C 437.04662,184.59698 437.75949,186.73563 439.1853,188.16138 C 440.84864,189.34952 442.98731,189.9436 445.60124,189.94358 C 450.35374,189.9436 455.58154,188.39901 461.28465,185.30985 C 466.98764,181.98307 472.57188,178.06223 478.03738,173.5473 C 483.74037,169.0324 488.96816,164.27984 493.7208,159.28964 C 498.47325,154.29951 502.15647,150.02222 504.77048,146.45777 C 505.95852,145.26968 506.55257,145.03205 506.55267,145.74488 C 506.7902,146.22019 506.67139,147.05187 506.19624,148.23996 M 600.02938,148.95285 C 595.75195,154.89358 590.76178,160.95307 585.05884,167.13134 C 579.59331,173.07206 573.65261,178.41867 567.23679,183.17121 C 561.05839,187.92376 554.64243,191.84462 547.98897,194.93376 C 541.57294,198.02291 535.27582,199.56749 529.09758,199.56749 C 526.24599,199.56749 523.63209,199.09224 521.25588,198.14172 C 518.87956,197.42884 517.69142,195.40901 517.69147,192.08224 C 517.69142,188.75545 518.87956,184.59698 521.25588,179.60679 C 523.63209,174.379 526.36481,168.91358 529.45402,163.21049 C 532.78074,157.50748 536.10752,151.68562 539.43437,145.74488 C 542.99871,139.80425 545.85024,134.33882 547.98897,129.34859 C 548.46414,128.16051 548.46414,127.21 547.98897,126.49706 C 547.75125,125.54662 547.03837,125.4278 545.85032,126.14061 C 543.23634,127.80407 540.14719,130.06154 536.58285,132.91299 C 533.01837,135.76458 529.33514,138.85375 525.53318,142.18047 C 521.9687,145.26968 518.4043,148.47765 514.83994,151.80438 C 511.51311,155.1312 508.7804,158.10155 506.6418,160.7154 C 502.83971,166.65612 499.51293,172.12155 496.66144,177.1117 C 494.04751,182.10189 490.72073,187.68614 486.68109,193.86443 C 485.73057,195.29021 485.01768,196.00309 484.54243,196.00309 C 483.35428,196.00309 482.28495,194.69614 481.33447,192.08224 C 480.62157,189.46834 480.26514,187.80494 480.26514,187.09205 C 480.26514,184.95342 481.6909,182.10189 484.54243,178.53746 C 487.63158,174.73545 490.95835,170.57697 494.52279,166.06203 C 498.3248,158.45799 502.24564,150.49748 506.28535,142.18047 C 510.32498,133.62593 513.77056,126.02186 516.62214,119.36823 C 517.33497,118.18017 518.4043,117.5861 519.8301,117.58602 C 521.25583,117.5861 522.56278,118.18017 523.75096,119.36823 C 524.93904,120.55644 525.53311,121.8634 525.53318,123.28909 C 525.53311,124.23966 523.7509,127.56644 520.18655,133.26944 C 516.85972,138.73493 513.53294,145.15085 510.2062,152.51726 C 514.72107,148.47765 519.59244,144.20035 524.82029,139.68538 C 530.28567,135.17051 535.39464,131.01205 540.14726,127.20994 C 545.13736,123.40797 549.41466,120.31883 552.97914,117.94247 C 556.78109,115.32864 559.395,114.02169 560.82085,114.02161 C 561.77125,114.02169 562.60296,114.61576 563.31593,115.80381 C 564.26635,116.75441 564.7416,117.70492 564.7417,118.65535 C 564.7416,119.60594 564.14753,121.0317 562.95949,122.93264 C 560.34551,126.73476 557.13754,131.60613 553.33558,137.54673 C 549.53346,143.48746 545.85024,149.66578 542.28591,156.08167 C 538.95905,162.26002 536.10752,168.2007 533.73131,173.90373 C 531.35499,179.60681 530.16685,184.12172 530.16691,187.4485 C 530.16685,190.30003 530.76092,192.31986 531.94911,193.50799 C 533.13718,194.4585 535.03821,194.93376 537.65217,194.93376 C 541.69176,194.93376 546.44431,193.38919 551.90983,190.30002 C 557.37516,187.21087 562.95939,183.40884 568.66254,178.89391 C 574.60313,174.14138 580.18738,168.91358 585.41529,163.21049 C 590.64296,157.50748 594.92026,152.04206 598.24717,146.8142 C 598.7223,146.10137 599.43518,145.98256 600.38581,146.45777 C 601.33618,146.69543 601.21737,147.52713 600.02938,148.95285 M 670.93889,152.51726 C 666.89912,157.50748 662.02776,162.73527 656.3248,168.20067 C 650.85929,173.42849 644.79979,178.29986 638.14631,182.81476 C 631.73029,187.09206 624.95792,190.65648 617.82915,193.50799 C 610.93791,196.1219 604.04673,197.42884 597.15556,197.42884 C 585.98705,197.42884 580.40282,192.43867 580.40284,182.45832 C 580.40282,175.80477 582.0662,168.67595 585.39301,161.07185 C 588.9574,153.23019 593.47232,146.10137 598.93778,139.68538 C 604.40317,133.03187 610.34384,127.56644 616.75983,123.28909 C 623.41334,118.77424 629.71046,116.51679 635.65122,116.5167 C 638.97792,116.51679 641.23538,117.11086 642.42361,118.2989 C 643.84929,119.48712 644.56215,121.0317 644.56225,122.93264 C 644.56215,125.78424 643.61165,128.8734 641.71072,132.20011 C 640.04726,135.52695 637.43334,138.73493 633.86901,141.82403 C 630.30453,144.67561 625.78961,147.1707 620.32423,149.30928 C 614.85876,151.21035 608.324,152.16086 600.71997,152.16082 C 599.5318,154.29951 598.22485,157.74511 596.79913,162.49761 C 595.37333,167.01257 594.66045,171.6463 594.66047,176.39882 C 594.66045,186.14155 599.05654,191.01291 607.8488,191.01291 C 613.31419,191.01291 618.89841,189.70596 624.60154,187.09205 C 630.54215,184.47817 636.2452,181.2702 641.71072,177.46814 C 647.17606,173.42849 652.16624,169.15121 656.68124,164.63625 C 661.4337,159.88375 665.35455,155.48764 668.4438,151.44793 C 668.91894,150.97273 669.3942,150.85392 669.86957,151.09149 C 670.58234,151.32917 670.93878,151.80442 670.93889,152.51726 M 633.51256,124.71486 C 633.5125,121.62578 631.96792,120.08119 628.87883,120.08111 C 626.50249,120.08119 624.00742,121.0317 621.39357,122.93264 C 619.01723,124.59611 616.64095,126.85356 614.26474,129.70502 C 611.88842,132.55661 609.63096,135.64577 607.49236,138.97249 C 605.35367,142.29934 603.57147,145.5073 602.14575,148.5964 C 602.62096,148.83408 603.45266,149.07171 604.64083,149.30928 C 605.82892,149.30934 606.77942,149.30934 607.49236,149.30928 C 614.38351,149.30934 620.443,146.93307 625.67086,142.18047 C 630.89859,137.19035 633.5125,131.36848 633.51256,124.71486"
       id="text2383" />
    <flowRoot
       xml:space="preserve"
       id="flowRoot2418"
       style="font-size:12px;font-style:normal;font-weight:normal;fill:#000000;fill-opacity:1;stroke:none;stroke-width:1px;stroke-linecap:butt;stroke-linejoin:miter;stroke-opacity:1;font-family:Bitstream Vera Sans"><flowRegion
         id="flowRegion2420"><rect
           id="rect2422"
           width="119.198"
           height="32.324883"
           x="234.35539"
           y="463.44324" /></flowRegion><flowPara
         id="flowPara2424"></flowPara></flowRoot>    <text
       xml:space="preserve"
       style="font-size:12px;font-style:normal;font-weight:normal;fill:#000000;fill-opacity:1;stroke:none;stroke-width:1px;stroke-linecap:butt;stroke-linejoin:miter;stroke-opacity:1;font-family:Bitstream Vera Sans"
       x="157.14285"
       y="149.50504"
       id="text2426"><tspan
         sodipodi:role="line"
         id="tspan2428"
         x="157.14285"
         y="149.50504"
         style="font-size:144px;font-style:italic;font-variant:normal;font-weight:bold;font-stretch:normal;font-family:Zapfino;-inkscape-font-specification:Zapfino Bold Italic" /></text>
    <path
       id="path3394"
       d="M 123.58177,44.294762 C 90.490614,43.861888 58.514797,65.195017 45.980177,95.789571 C 34.368375,122.66752 37.920524,155.43103 55.427102,178.96867 C 72.310987,202.69683 102.11242,216.40524 131.12229,213.47317 C 160.89386,211.11949 188.29617,191.41001 200.35757,164.14491 C 209.83764,143.54269 210.40847,119.11913 202.08536,98.043614 C 183.81301,114.43145 166.28873,131.64633 149.82372,149.85365 C 144.61286,156.23194 136.72603,160.50335 128.35217,159.91078 C 123.56975,159.94541 118.99476,159.24724 114.29963,159.1137 C 107.42449,160.27994 100.31884,160.31143 93.750337,162.96037 C 85.761976,165.47427 78.191155,169.15015 70.684591,172.74712 C 68.441269,171.80921 68.954878,170.41043 71.039956,171.80669 C 71.798542,170.44057 76.230069,166.48998 74.065954,169.76629 C 72.253215,171.47472 79.313826,168.08141 80.407621,167.50076 C 90.364351,162.16312 101.64374,160.39026 112.01041,156.13602 C 116.12467,153.99113 118.7367,149.30259 123.77377,148.8968 C 126.60727,148.49701 133.31113,147.03921 126.40658,147.68185 C 121.87622,147.88409 113.78126,149.25812 111.50804,149.25747 C 116.18339,148.56443 120.72008,147.30978 125.34692,146.60077 C 120.5464,144.6441 134.45414,146.04088 129.56063,145.04851 C 126.06449,145.5611 126.42812,142.31719 129.73009,143.8222 C 135.42624,143.71521 129.68893,143.33014 127.49056,142.71327 C 129.61644,143.48054 136.39629,141.81385 130.46967,141.97388 C 122.51933,142.10015 135.1461,140.21263 135.25824,139.44185 C 131.33932,139.31109 139.86441,138.66921 134.1684,138.4298 C 131.34329,138.5909 129.35406,138.54224 133.07828,137.40135 C 137.66574,133.11423 144.14656,133.84255 149.17109,131.12138 C 151.30713,129.59927 151.31026,126.59362 149.35009,129.93264 C 146.10758,134.73977 139.99966,131.46838 136.76767,131.15108 C 133.53949,134.84805 128.34535,137.71636 123.28578,138.13659 C 119.54609,138.2457 112.79207,140.90548 110.88006,138.91909 C 112.93106,136.84006 114.34358,135.84212 110.97904,137.89677 C 107.56692,139.63122 113.21439,141.65306 108.7116,140.55506 C 107.49273,142.59318 116.43367,148.29818 111.4541,144.45254 C 106.58217,138.23747 117.70554,144.43041 112.65344,147.51186 C 111.34882,148.97227 111.63549,145.67011 109.14754,145.13581 C 108.32396,144.19865 105.99771,139.96232 108.8697,142.55591 C 105.22449,140.46782 110.2164,135.65271 110.92157,131.98212 C 112.93951,127.19051 113.87515,121.82576 116.73003,117.45219 C 120.77779,114.52932 123.31746,110.49885 124.46611,105.7426 C 124.36155,105.3871 122.57459,113.47272 124.91007,112.46581 C 123.99111,109.88613 127.22303,103.86555 126.01414,109.66072 C 126.9076,113.00242 128.36806,112.67251 126.85875,109.53533 C 127.8781,102.81846 126.77707,112.89123 128.87469,111.63411 C 127.71412,108.71727 131.94846,102.69907 133.365,105.24637 C 134.22328,101.10665 135.47429,107.6993 134.59037,107.92796 C 135.50083,104.56757 135.5469,100.87878 140.18813,100.19507 C 145.56261,96.902791 149.53003,91.906326 155.3847,89.571023 C 161.6886,88.578371 163.86602,82.022596 168.74772,78.753378 C 173.40547,75.388685 178.0536,72.006601 182.73257,68.66866 C 178.06149,64.568284 174.12884,72.69904 169.69566,73.927463 C 159.9272,80.295174 150.28392,86.904443 140.15932,92.685495 C 135.36764,95.338924 130.91981,98.685509 126.0504,101.28304 C 122.62946,103.51866 118.24452,106.41975 115.87885,108.01246 C 114.06302,106.735 111.66035,111.50873 113.69873,106.9614 C 117.50761,103.62717 122.45722,101.36073 126.76207,98.319676 C 131.6739,95.347261 136.47103,92.351494 141.55668,89.699611 C 150.06449,84.602857 157.86932,78.435386 166.35758,73.300807 C 169.75269,70.317075 177.01495,67.430938 177.8534,64.188212 C 162.87366,51.427215 143.26808,44.201609 123.58177,44.294762 z M 182.45194,71.514955 C 178.21045,72.172859 186.28346,71.69209 182.45194,71.514955 z M 179.81611,71.685331 C 176.9528,72.049208 173.91917,78.651471 174.5853,78.519175 C 174.92317,75.331135 178.97467,74.4649 179.81611,71.685331 z M 184.88732,71.785548 C 185.22223,72.558736 186.39514,71.374876 184.88732,71.785548 z M 182.20139,72.256597 C 181.02119,74.525666 172.70949,79.150081 179.03901,75.835758 C 180.62998,75.211806 181.27832,73.574678 182.20139,72.256597 z M 162.38757,72.457033 C 161.91655,73.62346 161.43377,72.486745 162.38757,72.457033 z M 161.16486,72.657478 C 161.83735,73.226277 160.3973,73.357312 161.16486,72.657478 z M 160.79405,73.719827 C 160.25093,74.88436 159.88553,73.75126 160.79405,73.719827 z M 187.6334,73.9303 C 180.81111,73.96079 190.67006,76.081739 187.6334,73.9303 z M 159.41099,74.040534 C 160.05469,74.616696 158.6578,74.729092 159.41099,74.040534 z M 182.97309,74.381295 C 182.40226,76.345777 175.68095,79.913958 180.86513,77.119906 C 177.78969,79.300873 176.8809,81.960827 179.57984,79.996201 C 179.31023,81.683802 183.3997,80.253008 179.85857,81.975135 C 175.97691,81.426831 175.3681,85.386552 171.56413,87.120067 C 168.95118,83.692191 167.68894,90.014132 168.64648,89.469802 C 167.35023,91.19665 163.70923,91.575091 164.11541,91.299336 C 163.624,92.404117 159.11441,93.122038 162.42604,93.691431 C 158.92897,93.791239 159.8182,93.88186 161.68926,94.908054 C 158.48869,95.676233 157.16543,92.309461 156.53905,91.789793 C 152.1831,93.220064 156.1231,98.150397 156.62369,99.214466 C 154.22007,100.61917 147.67318,102.49635 148.26698,101.96796 C 150.25601,105.09127 142.52361,100.89451 142.8217,100.7649 C 145.88719,98.083824 139.53731,101.73648 142.21296,100.35874 C 142.0685,103.4629 140.08148,107.41073 138.5046,108.3872 C 139.60083,109.51887 143.65056,104.77907 144.89264,109.64369 C 148.59143,115.08321 141.96258,105.91136 141.76074,111.00837 C 142.54287,112.57263 146.10808,117.38208 142.62888,113.27973 C 142.09406,108.96836 134.50098,110.28272 135.11937,112.41547 C 139.40072,112.20602 131.04973,115.6645 129.84744,113.50285 C 132.49141,116.18356 123.37033,115.05207 129.65143,115.74026 C 133.97526,117.20593 124.15335,118.56259 126.05119,119.28847 C 125.49214,119.75908 133.73036,118.89149 127.77449,120.60519 C 126.44141,120.78431 121.7673,123.37277 125.55618,122.54067 C 120.75468,123.87393 130.22656,123.32915 125.25752,124.93435 C 122.10689,126.17032 121.87613,127.68308 121.66349,125.78609 C 118.83742,132.37731 125.00246,126.55467 127.20978,124.96315 C 123.87351,126.48942 120.97791,132.12453 125.2686,129.45813 C 119.30792,130.1531 129.00538,125.18576 128.38024,125.60252 C 130.63546,122.91757 124.053,133.08413 130.11007,129.76146 C 135.67982,130.33342 125.39949,131.01502 123.85359,130.88765 C 120.9858,130.43588 116.98197,132.9919 115.94688,133.96415 C 117.47471,132.22827 120.14288,129.71777 118.57052,130.77689 C 121.11362,127.00475 121.83664,119.67669 124.50334,117.59122 C 122.70653,119.73304 121.79266,125.37345 123.90273,119.91892 C 124.99143,117.68468 128.30412,114.25981 123.9115,117.01189 C 121.0792,120.944 120.78663,126.31749 117.07972,129.75603 C 115.26466,132.55441 108.00546,137.15348 109.7655,138.69552 C 115.05357,134.68913 120.93454,130.61708 127.91941,131.16195 C 129.79895,131.33683 136.1781,129.79792 135.20567,128.46622 C 132.02008,129.62099 132.06587,129.62467 135.05781,128.17751 C 137.5301,125.47153 130.75083,130.45461 133.70461,125.97839 C 135.08178,123.09889 136.8391,120.94576 136.24085,125.62901 C 136.78717,132.81752 136.87663,120.03417 138.39897,124.63773 C 138.32222,118.79203 140.06468,129.35364 144.02652,127.58667 C 146.55912,127.9685 149.20736,121.10803 147.78052,126.96305 C 147.24345,131.38409 136.84292,125.95617 142.95458,129.49552 C 148.76364,131.5203 152.40989,118.68383 146.22163,123.33945 C 143.50988,123.74181 142.30683,123.16086 144.68854,125.41407 C 140.17672,129.98549 136.90715,119.7726 141.58776,117.37944 C 140.55375,120.57422 143.035,119.11408 143.87385,117.04401 C 147.05914,118.84354 148.71261,114.73416 149.55271,113.01824 C 151.88704,117.59288 150.13932,109.90766 147.64085,112.06714 C 150.78675,111.28758 151.71376,111.10332 153.08382,109.56068 C 157.87477,111.94657 151.85392,104.32734 156.82447,103.37244 C 158.94079,101.08624 160.44122,100.09129 160.66054,103.97515 C 163.78936,104.36416 168.10343,99.392933 169.43854,96.209891 C 166.42976,92.050042 161.08297,103.84195 161.55633,99.954459 C 164.76465,96.090449 168.75777,92.901344 173.61892,91.579587 C 174.93381,89.246711 175.21193,88.656425 173.14302,89.724141 C 173.2228,85.45294 183.13125,88.991122 183.33952,89.918277 C 179.68839,93.347321 176.54836,97.681714 171.98253,99.902747 C 166.14537,101.53833 164.77301,108.22211 160.29326,111.68984 C 155.75734,115.63566 151.18198,121.49758 145.10056,121.37569 C 144.30618,123.70123 148.67819,119.37034 149.96251,122.55413 C 155.02329,122.75972 158.32445,115.69441 162.44095,112.72523 C 164.26406,111.10363 166.12141,107.7138 166.64335,108.50617 C 168.3415,107.02069 169.27361,108.49186 171.12594,104.7723 C 172.6663,103.93041 174.83073,101.09124 174.01775,101.28654 C 177.25775,104.75612 166.52463,112.84009 172.73445,107.71422 C 175.34515,103.82861 175.51585,98.59454 180.24335,96.227937 C 184.62142,92.113317 188.83512,87.801855 193.34766,83.818413 C 195.03989,80.252855 191.33536,83.291689 190.70319,81.064818 C 187.01299,78.072676 192.13627,82.785459 187.72407,83.527951 C 185.8509,85.022675 180.0345,88.429524 185.37022,86.952263 C 187.1036,84.039323 191.39202,83.256703 187.11532,86.349205 C 185.12932,89.192295 177.3696,89.060993 178.06696,85.877071 C 182.54751,87.197865 188.33042,81.571673 187.31745,79.076431 C 185.06454,79.366821 181.59903,83.041918 185.31777,79.373888 C 186.22631,78.581231 189.54973,76.105091 188.72685,78.907121 C 191.66933,72.916549 183.72186,77.756865 181.31726,78.317869 C 177.65217,78.161136 186.39412,75.300655 182.97309,74.381295 z M 157.67715,75.122937 C 158.35372,75.701055 156.73351,75.522056 157.67715,75.122937 z M 191.17123,78.38013 C 191.11462,80.200129 191.95972,78.769305 191.17123,78.38013 z M 155.91325,78.540489 C 156.9482,78.957603 155.04764,78.876415 155.91325,78.540489 z M 182.12121,78.610646 C 183.72339,78.168797 182.76117,79.48274 182.12121,78.610646 z M 181.72032,78.63069 C 183.32982,80.258119 178.23115,78.959232 181.72032,78.63069 z M 182.85283,79.151842 C 183.49323,79.685378 181.94529,79.60589 182.85283,79.151842 z M 186.96192,80.815518 C 187.7079,81.163663 186.11355,81.435465 186.96192,80.815518 z M 186.08999,81.136225 C 187.5813,81.560068 184.25298,81.627184 186.08999,81.136225 z M 190.44963,81.627317 C 191.44267,81.466324 190.25066,82.365395 190.44963,81.627317 z M 184.67686,81.737562 C 186.33844,82.76685 182.65746,81.858007 184.67686,81.737562 z M 191.22133,82.018182 C 190.92642,83.737369 190.13037,83.836747 191.22133,82.018182 z M 181.95084,82.479204 C 183.14963,86.011374 175.31535,85.440343 180.14689,83.6333 L 181.04428,83.046394 L 181.95084,82.479204 L 181.95084,82.479204 z M 184.44636,82.539334 C 184.29835,83.964935 182.0053,82.939079 184.44636,82.539334 z M 163.19937,82.649579 C 163.67327,83.576611 161.9522,82.871932 163.19937,82.649579 z M 169.38304,82.950242 C 166.5731,83.799968 165.15021,87.554153 168.84177,84.333247 C 169.14095,84.225593 170.02554,83.325744 169.38304,82.950242 z M 156.27406,82.980303 C 156.22286,83.636117 155.42105,82.931315 156.27406,82.980303 z M 174.92529,83.290993 C 174.83882,83.859043 175.55137,83.543007 174.92529,83.290993 z M 147.19397,83.591656 C 147.84333,83.74928 147.15658,84.336985 147.19397,83.591656 z M 182.56218,83.591656 C 183.88597,84.887071 180.50768,84.166272 182.56218,83.591656 L 182.56218,83.591656 z M 160.0023,83.822172 C 160.92608,84.257405 159.25977,84.373815 160.0023,83.822172 z M 161.62589,84.152896 C 162.66482,84.582434 160.71506,84.469342 161.62589,84.152896 z M 160.41321,84.603901 C 161.10428,85.359196 159.2212,85.163881 160.41321,84.603901 z M 171.59794,85.064913 C 170.87849,85.539639 172.47659,85.598049 171.59794,85.064913 z M 185.81938,85.365587 C 186.32735,86.072109 184.79581,85.799662 185.81938,85.365587 z M 189.3071,85.485848 C 188.96318,86.198372 188.57251,85.614405 189.3071,85.485848 z M 160.7239,85.726381 C 162.19193,86.331989 159.31258,86.260663 160.7239,85.726381 z M 169.94428,86.808773 C 171.04502,88.754246 166.35422,87.929839 169.94428,86.808773 z M 139.63727,87.229708 C 138.65231,88.582806 138.46758,87.549677 139.63727,87.229708 z M 139.7876,87.630589 C 139.07189,88.752126 138.85657,87.852 139.7876,87.630589 z M 156.55467,87.941279 C 156.45171,88.597902 155.80275,87.926961 156.55467,87.941279 z M 155.02129,88.62278 C 154.9706,89.274712 154.16882,88.586933 155.02129,88.62278 z M 137.80321,89.15396 C 136.65605,90.809411 135.78998,90.430734 137.80321,89.15396 z M 161.4956,89.21409 C 159.01127,89.653379 158.52917,94.032038 160.50652,90.199573 L 161.03768,89.744522 L 161.4956,89.21409 L 161.4956,89.21409 z M 161.73613,89.294264 C 163.19104,89.972898 162.87329,89.089876 161.73613,89.294264 z M 160.20274,89.324335 C 158.71022,90.198364 159.41514,91.276906 160.20274,89.324335 z M 198.19676,89.534797 C 197.04824,90.094767 198.37459,90.572493 198.19676,89.534797 z M 150.97233,89.705183 C 152.35618,90.99689 149.45035,91.394566 150.97233,89.705183 z M 157.61702,89.955732 C 156.92029,89.868962 157.48504,90.697589 157.61702,89.955732 z M 155.64266,90.386684 C 153.86475,91.280398 156.35683,91.606646 155.64266,90.386684 z M 172.74047,90.446814 C 174.3321,92.612131 168.78322,91.255172 172.74047,90.446814 z M 196.28252,91.338788 C 193.30355,93.856357 194.76668,94.224792 196.28252,91.338788 z M 199.33928,91.779766 C 197.89149,94.271761 194.93238,98.006272 197.4441,93.240179 C 194.38545,96.452083 192.71862,100.82631 188.86813,103.3919 C 192.02259,100.09794 201.56436,96.850404 199.33928,91.779766 z M 176.57895,91.79981 C 173.89719,91.227601 174.05368,97.165396 175.03183,93.313061 C 175.13896,93.026849 178.44031,92.163338 176.57895,91.79981 z M 154.79077,91.950141 C 152.58389,91.383422 155.36805,93.296551 154.79077,91.950141 z M 155.68274,92.761941 C 155.64797,93.432708 154.80812,92.719928 155.68274,92.761941 z M 177.69142,92.862158 C 174.19857,94.005613 177.9402,96.401068 177.69142,92.862158 z M 136.38007,92.872185 C 134.49378,94.654565 137.30123,93.929239 136.38007,92.872185 z M 198.94842,93.453469 C 198.88138,94.080749 198.1224,93.426952 198.94842,93.453469 z M 147.75521,93.54367 C 147.90959,94.645481 145.85174,94.234378 147.75521,93.54367 z M 135.43798,94.044779 C 134.01933,94.949637 134.93302,96.377511 135.43798,94.044779 z M 157.0658,94.054795 C 163.24239,94.869217 153.42091,100.38901 155.5704,95.232059 L 156.15357,94.54512 L 157.0658,94.054795 L 157.0658,94.054795 z M 193.67676,94.636079 C 192.65173,95.447335 193.55364,96.336584 193.67676,94.636079 z M 194.98967,94.906682 C 193.74243,97.9575 187.61063,100.73848 188.53744,103.01534 C 190.7187,99.826813 193.54325,99.97779 194.98967,94.906682 z M 192.95516,95.057014 C 192.31345,94.995941 192.76453,95.780097 192.95516,95.057014 z M 197.55533,95.31759 C 197.22915,96.033135 196.80528,95.438271 197.55533,95.31759 z M 199.64997,95.698427 C 198.86697,96.614275 200.48792,96.303042 199.64997,95.698427 z M 160.88424,95.768585 C 164.385,95.871619 158.90832,96.501552 160.88424,95.768585 z M 167.90979,96.109335 C 166.3138,98.18185 158.31277,105.50252 163.58029,99.948857 C 164.9423,98.581686 166.37197,97.277371 167.90979,96.109335 z M 199.28918,96.410009 C 197.43825,97.065372 198.25166,97.666382 199.28918,96.410009 z M 191.81264,96.47014 C 189.93112,98.033976 190.23455,99.998274 191.81264,96.47014 z M 169.12247,96.660558 C 167.34219,98.633654 161.78956,104.15474 162.43688,102.84058 C 164.53489,100.6549 166.59421,98.348456 169.12247,96.660558 z M 190.68013,97.101537 C 190.00729,97.052672 190.52387,97.830448 190.68013,97.101537 z M 122.79001,97.171684 C 119.80641,99.585728 115.03,104.71449 113.82761,106.06446 C 115.97697,102.43411 119.43393,99.639631 122.79001,97.171684 z M 146.58263,97.332043 C 145.9409,97.27096 146.39199,98.055126 146.58263,97.332043 z M 141.59159,97.512445 C 139.62823,100.25841 138.50221,98.676343 141.59159,97.512445 z M 195.18009,97.692837 C 194.65295,98.896883 194.25814,97.707391 195.18009,97.692837 z M 197.4952,97.913326 C 195.79691,98.326282 197.18977,99.098537 197.4952,97.913326 z M 146.63273,98.063658 C 145.99137,98.099095 146.33438,98.747781 146.63273,98.063658 z M 189.19686,98.434479 C 187.40842,99.560348 181.79661,106.84918 186.12099,101.89429 C 187.19,100.78337 188.37801,99.758602 189.19686,98.434479 z M 137.72303,98.845387 C 139.22382,101.16065 134.88177,102.14238 137.72303,98.845387 z M 196.18231,98.875457 C 195.30962,99.444624 196.98643,99.299086 196.18231,98.875457 z M 189.83827,99.316435 C 189.13292,99.264437 189.71033,100.03547 189.83827,99.316435 z M 118.00944,99.857632 C 117.95628,100.52849 117.16902,99.792677 118.00944,99.857632 z M 195.2302,99.977893 C 194.18002,100.24779 194.51257,101.17142 195.2302,99.977893 z M 193.92732,100.2485 C 193.25829,100.17696 193.76387,100.97126 193.92732,100.2485 z M 120.20429,100.35874 C 120.35784,101.75628 117.99106,101.59899 120.20429,100.35874 z M 116.71658,100.85984 C 116.36897,101.75984 115.99144,100.857 116.71658,100.85984 z M 171.22712,101.01018 C 171.10587,101.67037 170.49375,100.96628 171.22712,101.01018 z M 193.93734,101.26073 C 193.30019,101.30621 193.66385,101.95091 193.93734,101.26073 z M 188.00422,101.27076 C 187.31381,101.23024 187.88457,101.98073 188.00422,101.27076 z M 170.41532,101.32086 C 168.66725,103.32679 167.49244,103.46848 170.17761,101.50398 L 170.41532,101.32086 z M 192.53424,101.58144 C 191.72917,101.69243 191.79104,102.82521 192.53424,101.58144 z M 173.38188,101.64157 C 175.17688,102.12206 172.06417,102.41398 173.38188,101.64157 z M 187.57326,101.73177 C 184.79219,103.77266 180.61894,110.02911 181.24107,111.24928 C 183.43943,108.13588 185.48161,104.91674 187.57326,101.73177 z M 193.14559,101.95226 C 191.97018,102.16176 192.04961,103.30263 193.14559,101.95226 z M 142.84436,102.05249 C 144.4811,101.92233 148.62845,103.94326 144.94904,103.50853 C 143.74668,102.02668 147.20182,107.56722 143.20034,104.73245 C 142.09043,104.23749 140.90884,102.34004 142.84436,102.05249 z M 115.34354,102.19279 C 114.76339,103.13232 114.58015,102.30925 115.34354,102.19279 z M 119.2121,102.33311 C 119.65098,104.63238 116.00017,102.88568 119.09746,102.37409 L 119.2121,102.33311 z M 139.66733,102.49345 C 139.07076,102.47447 138.93143,103.64107 139.66733,102.49345 z M 191.06098,102.53354 C 188.50162,103.00321 191.04161,104.55879 191.06098,102.53354 z M 150.58146,102.80415 C 152.35047,103.61883 147.10606,104.32979 150.58146,102.80415 z M 112.57743,103.17497 C 107.3432,115.48939 103.9829,128.5593 98.109321,140.59906 C 97.402707,142.84348 96.185745,149.35006 96.464266,143.60207 C 98.298552,138.17574 101.54037,133.23777 103.00486,127.65797 C 100.5389,133.85205 96.691003,139.63965 95.215124,146.12099 C 93.319959,151.58285 87.601742,154.09952 83.740088,157.98724 C 79.875933,161.17956 75.914986,164.26511 72.265386,167.707 C 69.241493,171.05562 74.126095,163.48076 75.520485,162.15751 C 81.740764,154.8481 86.184704,146.32786 91.330343,138.28843 C 94.969747,133.11554 101.5829,130.37741 103.76948,124.08227 C 105.42672,120.37152 109.10548,112.86338 108.12069,111.09984 C 105.89232,113.52705 99.935342,117.85768 98.809463,117.46957 C 100.37596,110.92497 109.01612,110.65073 111.45842,104.6539 L 111.99084,103.89179 L 112.57743,103.17497 z M 138.85554,103.33531 C 136.51283,105.00622 136.84533,105.89923 138.85554,103.33531 z M 114.04066,103.42552 C 114.19857,104.77321 112.57075,103.95475 114.04066,103.42552 z M 191.45185,103.4656 C 189.91308,103.83349 191.40758,104.42046 191.45185,103.4656 z M 189.02647,103.73621 C 185.21851,104.68216 191.15786,105.63466 189.02647,103.73621 z M 148.07593,103.80636 C 148.49569,104.57145 147.20882,104.38622 148.07593,103.80636 z M 151.55361,104.30747 C 151.43237,104.96766 150.82023,104.26358 151.55361,104.30747 z M 187.002,104.75847 C 183.55201,105.98798 190.13932,106.81241 187.002,104.75847 z M 143.01473,104.87873 C 147.11632,107.29854 138.843,106.60265 143.01473,104.87873 z M 112.52732,104.94889 C 113.68636,105.90733 111.00055,106.25703 112.52732,104.94889 L 112.52732,104.94889 z M 154.19946,105.01904 C 154.47566,108.29526 148.98378,108.13606 154.19946,105.01904 z M 117.98939,105.0491 C 114.33035,105.28512 117.39619,107.36662 117.98939,105.0491 L 117.98939,105.0491 z M 147.04364,105.1393 C 147.43701,106.25122 146.03666,105.76547 147.04364,105.1393 z M 114.0106,105.31971 C 113.68291,106.02963 113.26362,105.47095 114.0106,105.31971 z M 136.51035,105.75066 C 135.67219,105.85352 136.06504,106.67476 136.51035,105.75066 z M 113.25893,106.05132 C 112.024,108.72311 110.01936,108.48392 113.25893,106.05132 z M 181.55997,106.27181 C 180.0654,107.17627 180.40345,108.1446 181.55997,106.27181 z M 185.34835,106.35199 C 182.40777,108.19312 188.83325,107.73926 185.34835,106.35199 z M 145.7608,106.50232 C 145.86549,108.51788 143.30673,108.67958 145.7608,106.50232 z M 111.64537,106.57247 C 112.19732,108.07444 109.77667,108.45145 111.64537,106.57247 z M 188.00422,106.65266 C 187.04674,106.77727 188.03233,107.23898 188.00422,106.65266 z M 132.20082,106.73283 C 128.68638,108.24073 132.71886,110.76536 132.20082,106.73283 z M 152.68612,106.75288 C 151.6042,107.0976 153.66923,107.34703 152.68612,106.75288 z M 181.58002,107.48449 C 179.9841,108.87766 178.23054,114.50721 178.80181,110.31767 C 177.45538,111.81607 176.75661,115.0433 175.53524,113.89485 C 174.87822,114.56934 174.27425,118.07212 174.05882,115.1473 C 171.63025,116.81268 173.0122,118.51388 173.12832,118.49505 C 171.76672,116.52178 168.77916,120.26765 171.48718,119.65221 C 169.7456,122.73879 169.24385,117.55918 168.03051,121.69882 C 170.71405,120.94919 166.32287,123.73753 169.27382,121.86262 C 171.08145,120.87159 170.35176,122.69435 172.24019,121.28128 C 172.02477,122.62465 172.31425,120.62081 171.3545,120.34605 C 175.47763,116.8717 180.79865,113.25376 181.58002,107.48449 z M 116.58629,107.60476 C 116.99723,108.17801 115.38231,107.47087 116.58629,107.60476 z M 112.48723,107.70498 C 113.42027,108.15038 111.77239,108.25431 112.48723,107.70498 z M 117.31791,107.94551 C 118.04104,109.11406 115.9559,109.81729 117.31791,107.94551 z M 184.03544,107.96556 C 181.59734,109.81102 187.03594,108.98996 184.03544,107.96556 z M 112.1565,108.23616 C 112.26557,109.57254 111.06408,108.6622 112.1565,108.23616 z M 152.15495,108.41655 C 154.55632,108.44954 151.9258,109.39441 152.15495,108.41655 z M 179.34507,108.45664 C 177.55708,109.56449 177.85722,110.84592 179.34507,108.45664 z M 116.02505,109.05798 C 116.27095,114.20671 114.87457,119.4253 111.73861,123.50098 C 111.17537,126.25363 103.28326,134.03532 108.18196,127.41645 C 111.85884,121.84303 115.6571,115.9142 116.02505,109.05798 z M 112.1565,109.18826 C 112.28826,112.19281 109.1444,110.09353 112.1565,109.18826 z M 133.13288,109.19828 C 132.41288,109.12332 133.02239,109.94648 133.13288,109.19828 z M 182.8428,109.63926 C 180.8491,111.19402 184.25225,111.15845 182.8428,109.63926 z M 116.88696,109.94995 C 117.12736,112.08108 116.09616,111.04885 116.88696,109.94995 z M 148.46679,110.59136 C 149.72811,111.09988 146.75067,110.68486 148.46679,110.59136 z M 177.08006,110.79181 C 175.33108,112.26232 175.7124,112.9979 177.08006,110.79181 z M 139.75753,110.86197 C 141.21596,113.2528 134.59552,113.62111 139.3822,112.14286 C 139.83201,111.96607 140.33051,111.26679 139.75753,110.86197 z M 112.07632,111.30294 C 111.55859,114.46544 110.63945,122.72452 109.12356,122.55011 C 110.57031,118.91674 110.83672,115.00117 112.07632,111.30294 z M 181.75039,111.36307 C 180.71629,112.49084 182.08735,111.86838 181.75039,111.36307 z M 144.82874,112.34524 C 149.04316,112.43416 147.7889,117.12352 144.61839,114.65755 C 144.10911,114.07585 143.44192,112.35001 144.82874,112.34524 z M 153.74847,112.35527 C 151.75958,114.54965 150.85693,118.68507 154.70711,115.73684 C 157.05995,112.54083 155.06142,113.47966 153.20556,115.1388 C 153.15337,114.23224 154.4061,113.30318 153.74847,112.35527 z M 147.12382,112.5056 C 148.11438,113.08691 147.13595,113.29723 147.12382,112.5056 z M 109.96164,112.60582 C 110.17649,113.93367 108.952,114.47936 109.96164,112.60582 z M 141.44125,112.92652 C 143.06884,114.28146 139.81945,114.80392 141.44125,112.92652 z M 174.50437,113.34746 C 172.53653,114.88771 173.34308,116.23983 174.50437,113.34746 z M 143.06485,114.74054 C 144.8002,115.84859 142.80475,116.04528 143.06485,114.74054 z M 176.65913,114.85079 C 176.31521,115.5633 175.92454,114.97934 176.65913,114.85079 z M 109.25007,115.09132 C 108.9619,117.38751 108.60315,117.18874 109.25007,115.09132 z M 177.94196,115.10134 C 175.74146,116.44191 178.27733,116.33557 177.94196,115.10134 z M 149.85987,115.20156 C 149.65765,116.04097 151.20223,115.10554 149.85987,115.20156 z M 139.57713,115.22161 C 138.87203,117.07391 136.8127,116.79131 139.57713,115.22161 z M 134.26538,115.6726 C 142.9381,116.55056 131.58517,127.87896 131.28232,119.01421 C 131.65863,117.52557 132.77496,116.14621 134.26538,115.6726 z M 175.66694,115.89309 C 175.34075,116.60864 174.91689,116.01377 175.66694,115.89309 z M 153.38767,115.94319 C 154.68945,116.04281 152.81914,116.52525 153.38767,115.94319 z M 172.1692,115.95322 C 169.82559,117.24785 170.36724,119.67521 172.1692,115.95322 z M 144.95903,116.07348 C 145.97968,116.10856 145.12925,117.19912 144.95903,116.07348 z M 139.20631,116.59464 C 139.10616,117.2433 138.44608,116.5875 139.20631,116.59464 z M 156.83529,116.65478 C 155.43678,118.5047 155.1614,117.67557 156.83529,116.65478 z M 176.9598,116.67482 C 176.27003,116.72616 176.3913,117.6666 176.9598,116.67482 z M 175.89745,116.8953 C 175.16218,117.38903 176.79067,117.39083 175.89745,116.8953 z M 111.8859,116.95544 C 112.01814,118.35303 111.47522,117.63606 111.8859,116.95544 z M 131.56942,117.42648 C 131.45429,118.06207 130.82694,117.41018 131.56942,117.42648 z M 175.48653,117.56679 C 174.4828,117.84579 174.79069,118.6247 175.48653,117.56679 z M 153.6282,117.9376 C 154.47825,119.84206 153.02808,119.53882 153.6282,117.9376 z M 108.60866,118.11801 C 108.26399,121.0686 107.76891,127.76941 106.02904,127.90095 C 106.88103,124.63802 107.93564,121.42614 108.60866,118.11801 z M 154.48009,118.3385 C 155.02498,119.16812 153.37689,119.18817 154.48009,118.3385 z M 141.89225,118.36857 C 142.2705,119.1332 140.95161,118.71745 141.89225,118.36857 z M 128.56278,118.45876 C 128.47304,119.33896 127.42753,118.251 128.56278,118.45876 z M 169.69372,118.69929 C 167.91327,119.97789 169.05951,120.19699 169.69372,118.69929 z M 157.9678,118.77947 C 155.75662,119.42223 159.29614,119.51872 157.9678,118.77947 z M 174.81505,118.87969 C 174.10976,118.8851 174.31317,119.9705 174.81505,118.87969 z M 174.21372,118.88972 C 171.16571,119.43866 173.06715,121.18154 174.21372,118.88972 z M 159.84194,119.87188 C 157.56528,121.17034 159.64309,121.65819 159.84194,119.87188 z M 156.82527,120.09237 C 156.77376,120.75349 157.73061,119.90365 156.82527,120.09237 z M 168.33071,120.37299 C 167.67627,120.26603 168.16609,121.19941 168.33071,120.37299 z M 156.37427,120.38302 C 154.16313,120.44459 157.01751,121.50059 156.37427,120.38302 z M 157.46669,120.75384 C 157.2951,121.94185 158.91846,121.03117 157.46669,120.75384 z M 161.35529,121.4153 C 159.86982,121.59617 160.63274,122.84903 161.35529,121.4153 z M 167.15812,121.45538 C 163.78533,123.14932 168.63377,123.15886 166.42038,122.68272 C 164.86578,123.27647 167.34203,122.02898 167.15812,121.45538 z M 145.851,121.5957 C 144.90937,123.26891 148.47516,121.14841 145.851,121.5957 z M 157.47671,121.6859 C 155.26399,121.9592 157.65741,123.31433 157.47671,121.6859 z M 130.82779,121.85628 C 130.51436,123.89462 128.69364,122.52693 130.82779,121.85628 z M 169.35297,122.3674 C 164.71007,124.47947 161.36272,128.17399 158.74788,132.17858 C 155.79206,137.22445 159.86814,131.45645 160.71221,130.81431 C 158.96551,135.25474 164.40062,127.04731 165.96549,126.04687 C 167.13694,124.86005 168.24889,123.61654 169.35297,122.3674 z M 171.26721,122.46763 C 170.62947,122.34916 171.08589,123.28307 171.26721,122.46763 z M 133.31328,122.64802 C 132.71525,123.8881 131.76148,131.20636 131.91684,126.57482 C 131.50465,131.92066 127.11481,127.69029 131.14088,125.1558 C 131.81095,124.27501 132.537,123.4368 133.31328,122.64802 z M 170.17479,122.75827 C 167.25479,123.60071 169.44201,124.79149 170.17479,122.75827 L 170.17479,122.75827 z M 159.34084,122.81841 C 156.97232,123.67259 158.31462,125.45325 159.34084,122.81841 z M 105.93274,123.37965 C 105.58503,125.28502 104.8689,132.84181 103.60023,130.17711 C 104.31166,127.88857 105.45986,125.74282 105.93274,123.37965 z M 112.21663,123.7204 C 112.52401,124.7691 111.2181,124.10968 112.21663,123.7204 z M 166.70712,124.24155 C 166.59198,124.87716 165.96464,124.22525 166.70712,124.24155 z M 168.29063,124.70257 C 166.38227,125.16276 166.86354,126.85085 168.29063,124.70257 z M 111.71552,124.71259 C 113.06998,128.50359 109.92513,126.17385 111.71552,124.71259 z M 163.96106,124.92306 C 162.73663,125.13304 164.06979,126.10258 163.96106,124.92306 z M 133.36339,124.95312 C 133.69756,125.62403 132.63175,125.43818 133.36339,124.95312 z M 165.12362,125.2137 C 164.77971,125.92622 164.38904,125.34225 165.12362,125.2137 z M 123.65191,125.91525 C 123.68003,126.50157 122.69445,126.03988 123.65191,125.91525 z M 149.63939,126.28607 C 148.59708,131.34171 141.56663,131.00794 139.3084,127.98121 C 139.55393,130.99168 135.81964,125.92091 138.18839,129.3371 C 140.89099,133.07081 149.43182,131.27097 149.63939,126.28607 L 149.63939,126.28607 z M 162.35751,126.39632 C 160.23209,127.49706 157.9855,132.88184 162.35751,126.39632 z M 163.82074,126.50656 C 163.75371,127.13383 162.99472,126.48005 163.82074,126.50656 z M 166.74721,126.51658 C 165.78265,127.58467 168.24653,126.32198 166.74721,126.51658 z M 111.31464,126.52661 C 110.76625,130.37372 109.76611,132.97492 108.64935,134.41399 C 108.09978,138.06641 104.30123,141.63482 101.14056,143.58488 C 97.682344,145.98702 99.112195,139.47174 99.896054,140.96907 C 98.953823,135.14456 107.4709,133.02436 109.40374,128.35747 C 110.60355,128.25036 109.6842,126.70089 111.31464,126.52661 z M 166.1058,126.77715 C 165.43297,126.72829 165.9495,127.50608 166.1058,126.77715 z M 110.39259,127.02771 C 110.30607,127.61465 111.02912,127.25143 110.39259,127.02771 z M 165.27395,127.40855 C 164.33121,127.82526 165.69497,128.13691 165.27395,127.40855 z M 143.86662,128.33059 C 143.75012,129.37254 146.37491,127.84238 143.86662,128.33059 z M 165.05346,128.34061 C 163.97022,128.06526 164.9758,129.21601 165.05346,128.34061 z M 169.33293,128.35064 C 167.51208,128.09183 169.13476,129.24389 169.33293,128.35064 z M 165.37417,128.63126 C 164.53601,128.73411 164.92888,129.55536 165.37417,128.63126 z M 168.24051,129.2827 C 167.14292,129.4689 168.4577,130.10765 168.24051,129.2827 z M 161.93658,129.48314 C 162.01585,130.07099 161.02824,129.5087 161.93658,129.48314 z M 137.76312,129.69361 C 138.73787,131.81088 140.51213,130.79259 137.76312,129.69361 L 137.76312,129.69361 z M 167.58907,129.95418 C 166.80874,130.27553 168.4055,130.29643 167.58907,129.95418 z M 158.76957,130.31498 C 156.6984,131.33029 153.32943,139.75367 157.00707,134.4768 C 157.77676,132.76927 157.3657,131.98141 158.76957,130.31498 z M 167.06792,130.31498 C 165.92888,130.89527 167.50749,131.15357 167.06792,130.31498 z M 123.34123,130.33502 C 120.82186,129.67973 123.71075,131.20441 123.34123,130.33502 z M 166.41648,131.4575 C 165.74747,131.38596 166.25302,132.18028 166.41648,131.4575 z M 162.46775,131.70806 C 161.83217,131.73711 162.1661,132.39812 162.46775,131.70806 z M 161.54571,132.1791 C 160.87668,132.10756 161.38226,132.90187 161.54571,132.1791 z M 164.95325,132.3595 C 164.59858,133.24887 165.98207,132.32495 164.95325,132.3595 z M 161.79626,132.49981 C 161.11369,132.43469 161.66481,133.20705 161.79626,132.49981 z M 111.44492,133.44189 C 110.30885,133.56589 111.47133,134.08105 111.44492,133.44189 z M 160.12257,134.04322 C 159.13694,134.49061 160.58784,134.74835 160.12257,134.04322 z M 158.87982,134.41404 C 157.60072,134.22507 159.31581,135.04438 158.87982,134.41404 z M 163.17933,134.49422 C 162.26162,134.93401 163.81025,135.04237 163.17933,134.49422 z M 161.52567,135.1657 C 161.4875,136.16172 162.68066,135.01383 161.52567,135.1657 z M 154.68053,135.22584 C 151.82634,137.54937 151.82711,139.21151 154.68053,135.22584 z M 157.97782,135.4363 C 156.89418,136.59249 158.11403,136.5221 157.97782,135.4363 z M 162.14704,135.81714 C 161.02229,135.73233 161.67466,137.13499 162.14704,135.81714 z M 157.00567,135.96748 C 154.44378,138.0629 148.47691,142.0738 148.19492,143.09673 C 151.59346,141.38909 154.65863,138.96872 157.00567,135.96748 z M 96.802548,136.41848 C 95.927197,137.01864 97.54462,136.78612 96.802548,136.41848 z M 108.17769,136.45856 C 109.21551,136.98694 107.33954,137.46236 108.17769,136.45856 z M 161.02456,136.68907 C 158.89418,137.28047 161.02776,138.13027 161.02456,136.68907 z M 107.12537,136.79932 C 106.255,137.70819 108.32656,137.59117 107.12537,136.79932 z M 153.85871,136.85945 C 152.15613,137.89166 153.54944,138.75575 153.85871,136.85945 z M 160.04238,137.89173 C 159.13277,138.05378 160.61562,138.68077 160.04238,137.89173 z M 100.4005,138.17235 C 100.25597,139.34882 102.28475,139.57077 100.4005,138.17235 z M 159.48114,138.41289 C 158.60579,139.01306 160.22323,138.78052 159.48114,138.41289 z M 127.29998,138.463 C 129.08707,138.59791 126.23706,138.64515 127.29998,138.463 z M 126.65857,138.54318 C 124.47411,139.58342 121.2434,138.5311 125.62721,138.59077 L 126.65857,138.54318 z M 137.90343,138.70352 C 138.51984,140.3867 140.29945,137.89818 137.90343,138.70352 z M 158.55911,138.79372 C 157.59291,139.93218 159.7332,140.28681 158.55911,138.79372 z M 140.74972,138.87391 C 139.94098,139.85279 142.10366,139.14686 140.74972,138.87391 z M 142.76417,138.95408 C 142.24307,139.92831 143.98021,139.03531 142.76417,138.95408 z M 121.94815,138.97413 C 119.28559,140.16042 111.94303,140.12668 118.72862,139.34447 C 119.80005,139.20633 120.8741,139.08971 121.94815,138.97413 z M 147.27416,138.97413 C 146.36428,139.40256 147.90885,139.51455 147.27416,138.97413 z M 145.10936,139.04428 L 145.14312,139.33465 L 145.10936,139.04428 z M 122.89023,139.64561 C 123.8403,139.92805 122.77715,140.77533 122.89023,139.64561 z M 154.8008,139.69573 C 154.03127,140.07318 155.20947,140.64931 154.8008,139.69573 z M 157.00567,139.73581 C 156.10875,139.99092 157.86823,140.18283 157.00567,139.73581 z M 128.87347,139.97635 C 126.13877,140.55018 120.48693,143.65805 119.64488,142.97251 C 122.48162,141.37563 125.63927,140.34855 128.87347,139.97635 z M 125.47595,140.00641 C 127.01763,139.61304 124.87885,140.61254 125.47595,140.00641 z M 114.19099,140.05652 C 113.70332,141.09574 112.23767,139.61495 114.19099,140.05652 z M 117.7188,140.06655 C 121.71183,139.71098 120.81217,141.91117 117.70161,142.08395 C 117.17817,143.47464 115.03356,142.67518 115.44425,144.42417 C 110.3988,143.25626 113.60091,140.0961 116.54237,140.89452 C 116.79331,140.97341 118.70354,140.65464 117.7188,140.06655 z M 157.82749,140.08659 C 154.83966,141.87998 157.1996,141.95136 157.82749,140.08659 z M 156.60479,140.20685 C 156.61027,140.96998 157.56074,140.23356 156.60479,140.20685 z M 156.08364,140.3171 C 155.61911,141.0039 156.81216,140.86288 156.08364,140.3171 z M 153.38767,140.34717 C 152.28841,140.46509 153.41021,140.98381 153.38767,140.34717 z M 91.621082,140.52756 C 90.913863,140.56913 91.066008,141.53401 91.621082,140.52756 z M 152.20505,141.31931 C 150.19145,141.78909 152.25753,143.35171 152.20505,141.31931 z M 105.65212,141.39949 C 106.65114,142.14569 104.55052,142.81281 105.65212,141.39949 z M 102.50516,141.4496 C 101.80618,141.93264 103.37207,141.96687 102.50516,141.4496 z M 153.61818,141.51976 C 152.95245,141.46324 153.4485,142.22745 153.61818,141.51976 z M 155.91325,141.77031 C 154.39901,144.24074 150.66609,146.08095 152.27436,146.24449 C 153.41434,144.78993 155.86115,143.84716 155.91325,141.77031 z M 106.24343,142.11106 C 108.31597,143.28543 112.99605,151.70782 108.61111,147.01322 C 105.55004,145.07448 106.33845,143.54402 106.24343,142.11106 z M 150.44116,142.45182 C 148.28273,143.56212 151.40125,145.19306 150.44116,142.45182 z M 98.085386,142.61217 C 102.22229,145.60887 95.919403,147.58171 98.085386,142.61217 z M 104.25903,142.8026 C 105.50623,144.58167 111.75345,151.66364 106.38336,147.88941 C 103.94781,146.89125 104.9558,141.71585 103.43788,145.14285 C 105.30565,147.55562 108.14148,151.18201 102.79875,150.06533 C 99.25717,149.10699 100.13804,147.59748 102.9987,149.9438 C 101.98681,149.84433 99.85314,145.98948 102.01982,147.91806 C 98.929683,146.01779 101.95285,144.04858 101.79088,147.55865 C 103.70839,149.83303 106.63523,149.87594 103.15117,147.46977 C 101.82862,144.38675 104.18584,147.44238 102.43692,144.85639 C 102.71578,143.93974 103.79668,143.5959 104.25903,142.8026 z M 122.04837,143.22352 C 123.61146,142.83465 121.4609,143.79955 122.04837,143.22352 z M 148.55699,143.63443 C 146.29344,145.38115 150.73772,145.31386 148.55699,143.63443 z M 121.82788,144.2057 C 126.51853,144.26355 120.96247,144.64306 121.82788,144.2057 z M 151.48346,144.21571 C 150.69109,144.32028 150.6962,145.47217 151.48346,144.21571 z M 127.89129,144.33598 C 126.86286,145.24747 129.27693,144.70673 127.89129,144.33598 z M 147.0236,144.35603 C 144.46314,145.38034 148.31737,146.46669 147.0236,144.35603 z M 121.08625,144.66672 C 121.39558,145.27281 119.20905,144.31353 121.08625,144.66672 z M 139.38671,145.08764 C 135.75342,145.26131 135.38976,147.17791 139.38671,145.08764 z M 97.534163,145.27806 C 99.152026,146.48206 97.034672,147.63661 97.534163,145.27806 z M 118.47046,145.41838 C 120.03753,145.76004 117.33761,145.69151 118.47046,145.41838 z M 151.99459,145.89944 C 150.38014,147.613 150.06426,148.9548 149.35968,148.3264 C 146.5026,152.27134 152.57517,147.18283 151.99459,145.89944 z M 106.85477,145.90946 C 107.65506,146.32998 106.79329,146.57196 106.85477,145.90946 z M 118.02948,145.93953 C 120.0046,145.32192 118.31192,146.78166 118.02948,145.93953 z M 117.43818,146.39052 C 121.36214,146.61241 113.83078,147.24178 117.43818,146.39052 z M 147.42449,146.63106 C 146.64263,146.74087 146.63448,147.85677 147.42449,146.63106 z M 146.60267,146.68117 C 145.48342,147.00065 146.47193,148.19876 146.60267,146.68117 z M 99.889366,146.7413 C 100.50701,148.74276 97.503652,146.78047 99.889366,146.7413 z M 107.70666,147.00188 C 108.35603,147.1595 107.66924,147.7472 107.70666,147.00188 z M 114.92262,147.18228 C 116.96168,147.30444 114.11376,147.87857 114.92262,147.18228 z M 145.65056,147.38272 C 145.0576,148.12543 146.00757,148.48943 145.65056,147.38272 z M 149.53916,147.50299 C 148.51561,147.68373 149.83744,148.55426 149.53916,147.50299 z M 96.892739,147.52303 C 97.818879,149.4212 103.69363,151.40044 102.71647,151.14471 C 100.75977,150.61413 96.746565,150.24213 96.892739,147.52303 z M 96.752434,148.26467 C 95.85198,150.48496 93.637092,150.28521 96.752434,148.26467 z M 120.87578,148.47514 C 116.11586,150.08895 111.04554,151.23757 107.48994,155.09668 C 103.06998,158.87779 97.093041,159.01261 92.068185,161.51086 C 88.433094,163.40521 86.624013,160.74615 89.741157,158.10989 C 93.525188,155.28722 95.654371,146.68863 101.15054,151.42637 C 106.54137,151.67319 111.63908,149.28933 117.00272,148.93088 C 118.28819,148.73633 119.57938,148.57607 120.87578,148.47514 z M 145.27975,148.78583 C 142.56615,148.92647 145.02971,150.97723 145.27975,148.78583 z M 145.51025,149.06645 C 145.04034,149.63734 146.41508,149.07705 145.51025,149.06645 z M 147.4345,149.37714 C 146.21473,151.59626 150.8629,150.02283 147.50456,149.4773 L 147.4345,149.37714 z M 108.70887,149.5876 C 109.45486,149.93574 107.86051,150.20754 108.70887,149.5876 z M 96.191194,149.60764 C 94.262743,151.35231 93.51131,151.42069 96.032485,149.71525 L 96.191194,149.60764 z M 143.48577,149.84817 C 140.11521,151.91683 145.47293,153.92905 143.48577,149.84817 z M 106.36369,150.38937 C 105.2583,151.32492 104.29821,150.14578 106.36369,150.38937 z M 143.68622,150.50963 C 143.15624,152.58906 142.29642,150.61394 143.68622,150.50963 z M 147.03362,150.74015 C 146.88759,151.78612 149.04242,150.22088 147.03362,150.74015 z M 146.68285,151.22121 C 145.17896,152.48951 148.23962,151.95103 146.68285,151.22121 z M 143.37553,151.52188 C 143.71348,152.22865 142.68052,151.87809 143.37553,151.52188 z M 145.87105,152.033 C 144.50121,152.50278 146.50142,153.08141 145.87105,152.033 z M 141.29092,152.50404 C 140.04758,153.11829 141.32455,153.56756 141.29092,152.50404 z M 141.56152,153.33588 C 139.8385,154.06613 141.58431,154.49767 141.56152,153.33588 z M 90.729119,153.86706 C 90.846768,154.45581 89.799967,153.89942 90.729119,153.86706 z M 113.9204,156.35255 C 112.78434,156.47654 113.94679,156.99172 113.9204,156.35255 z M 71.626873,170.94483 C 71.070731,172.78009 69.034061,170.39629 71.626873,170.94483 z"
       style="fill:#000000;fill-opacity:1;stroke:none;stroke-width:4.33300018;stroke-miterlimit:4;stroke-dasharray:none;stroke-opacity:1" />
    <path
       id="path3420"
       d="M 124.08163,37.364042 C 90.427777,36.9851 57.670478,57.262018 42.761403,87.405099 C 28.300438,115.47558 29.66262,150.98067 46.684864,177.64797 C 62.94738,204.28174 93.585734,221.38381 124.8401,220.7847 C 156.31704,220.8521 186.88112,203.00701 202.60145,175.78884 C 218.95177,148.77122 219.53584,113.31164 204.46168,85.618036 C 189.1384,56.385175 157.11789,37.036465 124.08163,37.364042 z M 124.08163,40.765802 C 156.81633,40.384755 188.66471,60.317367 202.81884,89.815061 C 216.71264,117.5499 214.63907,152.53681 197.09483,178.1979 C 180.74954,203.18123 151.0127,218.65223 121.14473,217.32864 C 90.427104,216.62608 61.067737,198.22367 46.784254,171.06333 C 31.746618,143.85025 32.909199,108.7856 49.414832,82.48609 C 64.952578,56.930362 94.135615,40.486862 124.08163,40.765802 z"
       style="fill:#000000;fill-opacity:1;stroke:none;stroke-width:10.91891861;stroke-miterlimit:4;stroke-dasharray:none;stroke-opacity:1" />
  </g>
</svg>
