<?xml version="1.0" encoding="UTF-8" standalone="no"?>
<!-- Created with Inkscape (http://www.inkscape.org/) -->
<svg
   xmlns:dc="http://purl.org/dc/elements/1.1/"
   xmlns:cc="http://web.resource.org/cc/"
   xmlns:rdf="http://www.w3.org/1999/02/22-rdf-syntax-ns#"
   xmlns:svg="http://www.w3.org/2000/svg"
   xmlns="http://www.w3.org/2000/svg"
   xmlns:sodipodi="http://sodipodi.sourceforge.net/DTD/sodipodi-0.dtd"
   xmlns:inkscape="http://www.inkscape.org/namespaces/inkscape"
   width="630"
   height="210"
   id="svg2"
   sodipodi:version="0.32"
   inkscape:version="0.44"
   version="1.0"
   sodipodi:docbase="/home/blackbird/Development/textpress"
   sodipodi:docname="logo.svg">
  <defs
     id="defs4" />
  <sodipodi:namedview
     id="base"
     pagecolor="#ffffff"
     bordercolor="#666666"
     borderopacity="1.0"
     gridtolerance="10000"
     guidetolerance="10"
     objecttolerance="10"
     inkscape:pageopacity="0.0"
     inkscape:pageshadow="2"
     inkscape:zoom="1.4"
     inkscape:cx="351.98687"
     inkscape:cy="30.494969"
     inkscape:document-units="px"
     inkscape:current-layer="layer1"
     showguides="true"
     inkscape:guide-bbox="true"
     width="630px"
     height="210px"
     units="px"
     inkscape:window-width="1400"
     inkscape:window-height="968"
     inkscape:window-x="0"
     inkscape:window-y="33" />
  <metadata
     id="metadata7">
    <rdf:RDF>
      <cc:Work
         rdf:about="">
        <dc:format>image/svg+xml</dc:format>
        <dc:type
           rdf:resource="http://purl.org/dc/dcmitype/StillImage" />
      </cc:Work>
    </rdf:RDF>
  </metadata>
  <g
     inkscape:label="Layer 1"
     inkscape:groupmode="layer"
     id="layer1"
     transform="translate(-22.69223,-16.51978)">
    <path
       transform="scale(0.950754,1.051797)"
       style="font-size:209.93206787px;font-style:normal;font-variant:normal;font-weight:normal;font-stretch:normal;text-align:start;line-height:100%;writing-mode:lr-tb;text-anchor:start;fill:#e3e3e3;fill-opacity:1;stroke:none;stroke-width:1px;stroke-linecap:butt;stroke-linejoin:miter;stroke-opacity:1;font-family:Exmouth"
       d="M 31.380449,167.81234 C 31.380433,165.21555 32.200479,163.06293 33.84059,161.35447 C 35.480664,159.57773 37.564949,158.68935 40.09345,158.68932 C 41.870192,158.68935 43.37361,159.40689 44.603709,160.84194 C 45.902086,162.27705 46.551289,163.88298 46.551321,165.65972 C 46.551289,167.16316 46.004592,168.70075 44.911226,170.27249 C 43.886139,171.84426 42.621901,172.63014 41.118508,172.63012 C 38.863355,172.63014 36.779071,171.94677 34.865649,170.58 C 36.984082,180.48891 47.849696,185.44336 67.462523,185.44336 C 82.633328,185.44336 95.48072,181.61648 106.00474,173.9627 C 113.52174,168.56407 122.71309,158.48434 133.57882,143.72346 L 157.15518,111.63912 C 162.9637,103.78042 173.04343,92.880633 187.39442,78.939736 C 202.22342,64.384023 213.29404,54.850985 220.60633,50.340592 L 221.9389,50.033074 L 222.75895,50.955627 L 222.45143,52.083192 C 220.12776,54.748479 216.54006,58.165339 211.68831,62.333781 C 206.42615,66.844162 202.77011,70.158516 200.72018,72.276853 C 192.92956,80.614107 181.14139,97.185876 165.35565,121.99221 C 151.61972,143.58683 139.21652,158.86019 128.14601,167.81234 C 111.47162,181.20646 91.141308,187.9035 67.155005,187.9035 C 58.134444,187.9035 50.583184,186.7076 44.501203,184.31579 C 35.754013,180.89894 31.380433,175.39779 31.380449,167.81234 M 161.46043,42.960167 C 144.85434,42.960313 129.23929,46.137993 114.61523,52.493215 C 95.754069,60.625478 86.323536,71.901115 86.323607,86.32016 C 86.323536,91.99225 89.193698,96.229156 94.934102,99.030891 C 99.37594,101.28611 104.70624,102.41367 110.92502,102.41359 C 120.28712,102.41367 130.87939,99.611847 142.70185,94.008102 C 156.57417,87.447826 163.5104,80.067409 163.51054,71.866829 C 163.5104,68.176738 162.04115,65.306576 159.10279,63.256334 C 156.50583,61.411356 153.29399,60.488803 149.46724,60.488675 C 133.54454,60.488803 117.96366,67.322523 102.72455,80.989854 C 100.60601,83.381763 97.223318,86.730286 92.576467,91.035431 L 91.653913,91.240443 L 90.936372,90.420396 L 91.24389,89.292831 C 94.729011,82.185862 103.23699,75.112963 116.76786,68.074111 C 129.75182,61.377187 140.44659,58.028665 148.8522,58.028534 C 153.22565,58.028665 157.01836,59.019554 160.23036,61.001204 C 164.05709,63.393134 165.97053,66.673319 165.97069,70.84177 C 165.97053,80.409095 158.9318,88.746233 144.85447,95.853208 C 132.89533,102.00365 121.58553,105.07882 110.92502,105.07874 C 103.88619,105.07882 97.872522,103.64374 92.883984,100.77349 C 86.870234,97.288382 83.863397,92.23143 83.863466,85.602619 C 83.863397,79.794061 85.366815,74.737108 88.373725,70.431747 C 99.102591,55.192671 116.87026,45.454621 141.67679,41.217567 C 152.81563,39.304274 173.96599,38.347553 205.12794,38.347402 C 212.91819,38.347553 224.56968,38.41589 240.08245,38.552414 C 255.6631,38.620902 267.34876,38.65507 275.13946,38.65492 C 281.35789,38.65507 286.07315,38.005867 289.28527,36.707308 C 291.54013,35.750739 295.46952,33.188095 301.07345,29.019366 L 301.996,28.609342 L 303.22608,30.044425 L 302.81605,31.069484 C 291.54013,43.165325 272.88407,49.213167 246.84783,49.213027 C 237.21206,49.213167 222.92959,48.188109 204.00037,46.13785 C 185.07078,44.01954 170.89081,42.960313 161.46043,42.960167 M 198.97758,166.37726 L 200.00264,168.01736 L 199.59261,169.04242 C 180.93654,182.50486 168.05498,189.23608 160.94789,189.23608 C 151.99573,189.23608 147.51965,185.78505 147.51962,178.88298 C 147.51965,171.50257 152.20075,164.05382 161.56293,156.5367 C 170.51511,149.36132 178.74975,145.77362 186.26685,145.77358 C 190.57208,145.77362 192.7247,147.55039 192.72472,151.10388 C 192.7247,155.20415 189.44452,158.82602 182.88415,161.96951 C 176.80214,164.56635 170.72013,167.19733 164.63811,169.86246 C 158.07774,173.27934 154.79756,177.44791 154.79754,182.36818 C 154.79756,184.82833 156.33515,186.0584 159.41031,186.05839 C 165.90235,186.0584 174.06865,182.77821 183.90921,176.21783 C 193.8181,169.65747 198.84088,166.37728 198.97758,166.37726 M 166.58572,164.94218 C 181.96159,159.88525 189.64953,155.30666 189.64954,151.20639 C 189.64953,149.63467 188.89782,148.84879 187.39441,148.84875 C 182.13244,148.84879 175.19621,154.21326 166.58572,164.94218 M 264.06883,153.0515 C 264.06878,157.97181 261.84782,160.43195 257.40594,160.43192 C 254.67242,160.43195 253.30567,159.0652 253.30571,156.33168 C 253.30567,152.70985 255.15078,150.89891 258.84102,150.89887 C 259.31935,150.89891 259.79771,150.96725 260.27611,151.10388 C 259.31935,150.1472 258.26012,149.66884 257.09842,149.6688 C 253.20317,149.66884 246.43779,154.45244 236.80226,164.01963 C 227.1667,173.51852 222.34893,180.1814 222.34893,184.00828 C 222.34893,185.78505 224.70656,186.67343 229.42183,186.67343 C 234.06875,186.67343 240.32161,184.21329 248.18041,179.293 C 254.19406,175.46613 259.76354,171.22923 264.88887,166.58227 L 266.11894,168.11986 C 265.77721,171.60508 260.48108,176.11533 250.23053,181.65064 C 240.45828,186.98095 233.45372,189.6461 229.21682,189.6461 C 221.2897,189.6461 217.32614,186.33175 217.32614,179.70303 C 207.55392,185.85338 200.75437,188.92856 196.92747,188.92856 C 191.52885,188.92856 188.82953,186.84427 188.8295,182.6757 C 188.82953,177.00372 191.28967,174.16772 196.20992,174.16771 C 199.01177,174.16772 200.41269,175.73948 200.41267,178.88298 C 200.41269,183.25657 197.57669,184.965 191.90468,184.00828 C 192.9981,185.23835 194.36485,185.85338 196.00491,185.85338 C 200.85688,185.85338 208.51064,181.20646 218.96623,171.91258 C 229.35349,162.61874 234.54711,155.64835 234.54713,151.00138 C 234.54711,149.83968 233.6929,149.25882 231.98448,149.25878 C 225.01408,149.25882 214.14846,155.92169 199.38761,169.24743 L 197.95252,167.81234 C 197.95255,165.01054 202.97533,160.67113 213.02089,154.7941 C 222.72478,149.12214 229.28515,146.28615 232.70202,146.28611 C 234.75213,146.28615 236.52889,147.1062 238.03233,148.74625 C 239.53573,150.38638 240.28744,152.19732 240.28746,154.17906 C 246.91615,149.46383 252.17811,147.1062 256.07337,147.10615 C 261.40363,147.1062 264.06878,149.08797 264.06883,153.0515 M 264.17132,169.24743 L 263.24877,167.81234 L 263.86381,166.58227 C 283.27159,153.46156 297.34905,142.01508 306.09623,132.2428 L 300.76593,132.2428 L 299.02333,130.91022 C 299.57001,129.68021 302.74769,129.16768 308.55638,129.37263 L 326.3924,109.38399 L 338.38559,109.38399 L 320.34455,129.37263 L 333.2603,129.37263 L 334.59287,130.80772 C 334.38781,132.03784 328.98917,132.51621 318.39694,132.2428 C 310.19645,141.3317 301.99598,150.42055 293.79553,159.50937 C 280.26476,174.74859 273.39687,183.08573 273.19184,184.5208 L 274.72943,185.44336 C 282.65656,185.85338 294.61557,179.56636 310.60649,166.58227 L 311.52905,168.01736 C 311.46068,170.88754 305.8912,175.19278 294.82059,180.9331 C 284.22831,186.40008 277.05291,189.13357 273.29435,189.13357 C 269.05746,189.13357 266.939,186.98095 266.93898,182.6757 C 266.939,177.82376 269.29664,172.66431 274.01189,167.19731 C 278.18047,163.02876 282.34904,158.86019 286.51761,154.69159 C 279.82056,159.33855 272.37181,164.19049 264.17132,169.24743 M 353.35144,169.65745 C 353.35142,167.19733 354.10313,164.90803 355.60657,162.78956 C 357.1783,160.67113 359.16008,159.6119 361.55191,159.61187 C 363.39699,159.6119 365.00291,160.32944 366.36969,161.7645 C 367.7364,163.19961 368.41977,164.8397 368.41981,166.68478 C 368.41977,171.33173 366.36965,173.6552 362.26945,173.65518 C 361.24437,173.6552 360.1168,173.45018 358.88676,173.04015 C 361.27853,181.99233 371.35827,186.46842 389.126,186.46842 C 405.66354,186.46842 423.15786,178.02878 441.60901,161.14946 C 448.78431,154.65746 464.70688,137.02646 489.37676,108.25642 C 508.98938,85.431879 525.3903,70.090179 538.57959,62.231275 C 532.77072,55.124334 524.91194,49.657358 515.00323,45.830332 C 505.98254,42.276941 496.51784,40.500174 486.6091,40.500026 C 473.89823,40.500174 459.61576,43.233662 443.76164,48.700497 C 426.2672,54.782648 412.0189,62.573088 401.01668,72.071841 C 388.10088,83.279257 381.64302,95.477446 381.64307,108.66644 C 381.64302,116.25195 384.88903,122.26563 391.38113,126.70748 C 397.05305,130.53443 403.81844,132.44787 411.67729,132.44781 C 425.27632,132.44787 440.13966,127.56176 456.26736,117.78947 C 474.17158,106.85559 483.12375,95.067423 483.1239,82.424936 C 483.12375,77.231416 481.07363,73.267859 476.97355,70.534252 C 473.48821,68.210906 469.04629,67.049174 463.64778,67.049052 C 444.23989,67.049174 422.91868,81.092467 399.6841,109.17897 C 397.63392,111.8442 395.31046,114.64603 392.7137,117.58446 L 391.68864,116.35439 C 395.5838,105.55718 405.56104,94.281546 421.62036,82.527442 C 437.95286,70.568539 451.82532,64.589035 463.23776,64.588911 C 469.52465,64.589035 474.71827,65.955779 478.81865,68.689146 C 483.53377,71.901115 485.89141,76.513875 485.89156,82.527442 C 485.89141,97.288382 477.28092,110.06744 460.06007,120.86465 C 444.82075,130.43192 429.37655,135.21552 413.72741,135.21547 C 404.50181,135.21552 396.6772,133.30208 390.25356,129.47514 C 382.5314,124.82827 378.67035,118.13123 378.6704,109.38399 C 378.67035,88.746233 391.9961,71.183574 418.64769,56.695957 C 441.40389,44.25872 464.05767,38.040035 486.6091,38.039885 C 509.50191,38.040035 527.50876,45.557127 540.62971,60.591181 C 543.97802,58.541193 549.23998,55.568526 556.41561,51.673168 C 565.02588,47.026376 570.01449,44.702912 571.38147,44.702768 C 572.26962,44.702912 572.81632,45.215441 573.02157,46.240356 L 572.50904,47.162909 C 560.48145,52.698363 550.36755,57.926159 542.16729,62.846311 C 546.74568,70.910225 549.03497,78.051462 549.03519,84.270042 C 549.03497,93.017307 545.9598,100.91025 539.80966,107.9489 C 533.38576,115.26106 525.90283,118.9171 517.36087,118.91703 C 514.90054,118.9171 512.71375,118.13123 510.80049,116.5594 C 508.88687,114.91938 507.93015,112.86926 507.93033,110.40904 C 507.93015,106.85559 510.73198,102.61868 516.33581,97.698314 C 521.93928,92.778127 526.55204,90.352157 530.1741,90.420396 L 530.99415,91.752972 L 530.1741,93.085549 C 517.53153,98.210934 511.21034,104.05376 511.21051,110.61406 C 511.21034,113.14261 512.30373,114.40685 514.4907,114.40677 C 521.39258,114.40685 528.15796,109.89659 534.78687,100.876 C 541.07369,92.333936 544.2172,84.475158 544.21741,77.299641 C 544.2172,73.062847 542.81629,68.757604 540.01467,64.383899 C 534.13746,68.210906 528.3288,73.677882 522.58867,80.784842 C 521.90511,81.604996 517.15567,88.09703 508.34035,100.26096 C 492.89597,121.58225 482.50871,135.38637 477.17856,141.67334 C 464.60437,156.5709 452.167,167.74403 439.86641,175.19277 C 424.62711,184.34997 408.12368,188.92856 390.35607,188.92856 C 381.81386,188.92856 374.19426,187.69849 367.49725,185.23835 C 358.06669,181.82149 353.35142,176.62786 353.35144,169.65745 M 480.66378,166.78729 C 489.27429,159.6119 495.59548,153.93992 499.62737,149.77131 C 497.0989,148.9513 495.83466,147.34538 495.83465,144.95353 C 495.83466,140.85334 497.95311,138.80323 502.19001,138.80318 C 504.9235,138.80323 506.29025,140.20414 506.29025,143.00592 C 506.29025,144.64606 505.64104,145.97863 504.34264,147.00365 C 508.44287,147.00369 512.13308,146.49116 515.41327,145.46606 L 519.411,153.56403 C 514.55905,158.75769 509.70711,163.95131 504.85517,169.14492 C 497.06473,177.68709 493.16951,182.60737 493.1695,183.90577 C 493.16951,184.8625 493.85288,185.34086 495.21961,185.34085 C 502.60004,185.34086 514.14903,179.088 529.86661,166.58227 L 531.09668,168.22237 C 531.02831,170.47752 525.32216,174.57775 513.97819,180.52308 C 502.97589,186.26341 495.86883,189.13357 492.65697,189.13357 C 488.35173,189.13357 486.19911,186.57093 486.1991,181.44563 C 486.19911,177.3454 489.5818,171.50257 496.34718,163.91712 C 500.99412,159.20188 505.64104,154.48661 510.28798,149.77131 C 507.89617,150.18137 505.67521,150.31804 503.6251,150.18133 C 491.11939,162.68708 483.70481,169.00827 481.38132,169.14492 L 480.25375,167.70984 L 480.66378,166.78729 M 576.60926,166.37726 L 577.63432,168.01736 L 577.2243,169.04242 C 558.56822,182.50486 545.68666,189.23608 538.57958,189.23608 C 529.62742,189.23608 525.15133,185.78505 525.1513,178.88298 C 525.15133,171.50257 529.83243,164.05382 539.19461,156.5367 C 548.1468,149.36132 556.38143,145.77362 563.89853,145.77358 C 568.20376,145.77362 570.35639,147.55039 570.3564,151.10388 C 570.35639,155.20415 567.0762,158.82602 560.51584,161.96951 C 554.43382,164.56635 548.35181,167.19733 542.26979,169.86246 C 535.70943,173.27934 532.42924,177.44791 532.42922,182.36818 C 532.42924,184.82833 533.96683,186.0584 537.04199,186.05839 C 543.53404,186.0584 551.70033,182.77821 561.5409,176.21783 C 571.44978,169.65747 576.47256,166.37728 576.60926,166.37726 M 544.2174,164.94218 C 559.59328,159.88525 567.28121,155.30666 567.28123,151.20639 C 567.28121,149.63467 566.5295,148.84879 565.0261,148.84875 C 559.76412,148.84879 552.8279,154.21326 544.2174,164.94218 M 611.46132,172.83513 C 614.12645,172.35679 618.80755,170.2725 625.50462,166.58227 L 626.63219,167.91485 C 626.63216,169.6233 624.10368,171.43424 619.04675,173.34766 C 614.67315,175.05611 611.32463,175.97866 609.00117,176.11532 C 598.81892,185.13584 589.62757,189.6461 581.42709,189.6461 C 574.86674,189.6461 571.58655,187.04929 571.58652,181.85565 C 571.58655,176.45702 573.84168,173.7577 578.35191,173.75769 C 581.29043,173.7577 582.75968,175.02194 582.75967,177.5504 C 582.75968,181.85566 580.23121,183.93994 575.17423,183.80326 C 575.31093,185.71671 576.84852,186.67343 579.787,186.67343 C 591.54101,186.67343 601.65492,173.31351 610.12874,146.59362 C 607.80526,148.23376 596.87131,155.78502 577.32685,169.24743 L 575.89177,167.40232 C 576.16514,166.85564 583.64807,161.3545 598.34056,150.89887 C 613.03306,140.44332 621.02851,135.04468 622.32694,134.70294 L 623.86453,136.44554 C 621.74605,138.15402 618.56837,140.71667 614.33148,144.13348 C 614.12645,145.29526 614.02395,146.79868 614.02396,148.64374 C 614.02395,149.87385 614.19479,151.68479 614.53649,154.07655 C 614.9465,156.46839 615.15151,158.27933 615.15153,159.50937 C 615.15151,164.36134 613.92144,168.80325 611.46132,172.83513 M 661.07417,172.83513 C 663.73931,172.35679 668.42041,170.2725 675.11748,166.58227 L 676.24504,167.91485 C 676.24501,169.6233 673.71654,171.43424 668.65961,173.34766 C 664.28601,175.05611 660.93748,175.97866 658.61403,176.11532 C 648.43178,185.13584 639.24042,189.6461 631.03994,189.6461 C 624.47959,189.6461 621.19941,187.04929 621.19938,181.85565 C 621.19941,176.45702 623.45453,173.7577 627.96477,173.75769 C 630.90329,173.7577 632.37254,175.02194 632.37252,177.5504 C 632.37254,181.85566 629.84406,183.93994 624.78708,183.80326 C 624.92378,185.71671 626.46137,186.67343 629.39985,186.67343 C 641.15387,186.67343 651.26777,173.31351 659.74159,146.59362 C 657.41812,148.23376 646.48417,155.78502 626.93971,169.24743 L 625.50463,167.40232 C 625.778,166.85564 633.26092,161.3545 647.95342,150.89887 C 662.64591,140.44332 670.64136,135.04468 671.93979,134.70294 L 673.47738,136.44554 C 671.35891,138.15402 668.18123,140.71667 663.94434,144.13348 C 663.73931,145.29526 663.6368,146.79868 663.63682,148.64374 C 663.6368,149.87385 663.80765,151.68479 664.14935,154.07655 C 664.55935,156.46839 664.76437,158.27933 664.76438,159.50937 C 664.76437,164.36134 663.5343,168.80325 661.07417,172.83513"
       id="text2770" />
    <path
       style="font-size:144px;font-style:normal;font-variant:normal;font-weight:normal;font-stretch:normal;text-align:start;line-height:125%;writing-mode:lr-tb;text-anchor:start;fill:black;fill-opacity:1;stroke:none;stroke-width:1px;stroke-linecap:butt;stroke-linejoin:miter;stroke-opacity:1;font-family:Gill Sans MT"
       d="M 62.317375,64.823151 L 144.37206,64.823151 L 144.37206,77.338776 L 110.12988,77.338776 L 110.12988,163.19034 L 95.997063,163.19034 L 95.997063,77.338776 L 62.317375,77.338776 L 62.317375,64.823151 M 189.583,131.97159 L 144.09081,131.97159 C 144.41892,138.15911 146.48142,143.08098 150.27831,146.73721 C 154.12203,150.39348 159.06734,152.2216 165.11425,152.22159 C 173.5517,152.2216 181.33294,149.5966 188.458,144.34659 L 188.458,156.86221 C 184.52044,159.48722 180.60638,161.36221 176.71581,162.48721 C 172.87202,163.61221 168.34858,164.17471 163.1455,164.17471 C 156.02047,164.17471 150.25485,162.69815 145.84863,159.74503 C 141.44236,156.79191 137.9033,152.83097 135.23144,147.86221 C 132.60643,142.84661 131.29393,137.05755 131.29394,130.49503 C 131.29393,120.65132 134.08299,112.65914 139.66113,106.51846 C 145.23923,100.33103 152.48141,97.237279 161.38769,97.237213 C 169.96577,97.237279 176.80951,100.23728 181.91894,106.23721 C 187.02825,112.23726 189.58294,120.27632 189.583,130.3544 L 189.583,131.97159 M 144.37206,124.30753 L 176.92675,124.30753 C 176.59857,119.19819 175.07514,115.2607 172.35644,112.49503 C 169.63764,109.72945 165.9814,108.34664 161.38769,108.34659 C 156.79391,108.34664 153.02047,109.72945 150.06738,112.49503 C 147.1611,115.2607 145.26267,119.19819 144.37206,124.30753 M 248.01269,98.502838 L 264.3955,98.502838 L 237.74706,130.3544 L 266.29394,163.19034 L 249.91113,163.19034 L 229.59081,139.98721 L 210.3955,163.19034 L 194.29394,163.19034 L 221.50488,130.3544 L 194.29394,98.502838 L 210.3955,98.502838 L 229.59081,120.72159 L 248.01269,98.502838 M 266.29394,108.76846 L 290.34081,85.143463 L 290.34081,98.502838 L 310.80175,98.502838 L 310.80175,110.03409 L 290.34081,110.03409 L 290.34081,141.74503 C 290.34079,149.15129 293.4111,152.85441 299.55175,152.8544 C 304.14546,152.85441 308.99702,151.30754 314.10644,148.21378 L 314.10644,160.1669 C 309.18452,162.93253 303.81734,164.31534 298.00488,164.31534 C 292.14547,164.31534 287.27048,162.6044 283.37988,159.18253 C 282.16111,158.15128 281.1533,157.00284 280.35644,155.73721 C 279.55955,154.42472 278.87986,152.73722 278.31738,150.67471 C 277.80174,148.56535 277.54393,144.58098 277.54394,138.72159 L 277.54394,110.03409 L 266.29394,110.03409 L 266.29394,108.76846 M 324.44238,163.19034 L 324.44238,64.823151 L 355.59081,64.823151 C 364.96576,64.823249 372.44232,67.354496 378.0205,72.416901 C 383.59856,77.479486 386.38762,84.276355 386.38769,92.807526 C 386.38762,98.52634 384.95793,103.58884 382.09863,107.99503 C 379.23919,112.40133 375.32513,115.61226 370.35644,117.62784 C 365.38764,119.59663 358.26264,120.58101 348.98144,120.58096 L 338.57519,120.58096 L 338.57519,163.19034 L 324.44238,163.19034 M 353.12988,77.338776 L 338.57519,77.338776 L 338.57519,108.06534 L 353.97363,108.06534 C 359.69233,108.06539 364.09858,106.72946 367.19238,104.05753 C 370.28607,101.33884 371.83294,97.471654 371.833,92.455963 C 371.83294,82.377919 365.59857,77.338861 353.12988,77.338776 M 410.57519,98.502838 L 410.57519,113.33878 L 411.27831,112.21378 C 417.46578,102.22946 423.65328,97.237279 429.84081,97.237213 C 434.66889,97.237279 439.70795,99.674777 444.958,104.54971 L 438.208,115.79971 C 433.75483,111.58101 429.62983,109.47164 425.833,109.47159 C 421.70797,109.47164 418.12203,111.44039 415.07519,115.37784 C 412.07516,119.31538 410.57516,123.97944 410.57519,129.37003 L 410.57519,163.19034 L 397.708,163.19034 L 397.708,98.502838 L 410.57519,98.502838 M 506.2705,131.97159 L 460.77831,131.97159 C 461.10642,138.15911 463.16892,143.08098 466.96581,146.73721 C 470.80953,150.39348 475.75484,152.2216 481.80175,152.22159 C 490.2392,152.2216 498.02044,149.5966 505.1455,144.34659 L 505.1455,156.86221 C 501.20794,159.48722 497.29388,161.36221 493.40331,162.48721 C 489.55952,163.61221 485.03608,164.17471 479.833,164.17471 C 472.70797,164.17471 466.94235,162.69815 462.53613,159.74503 C 458.12986,156.79191 454.5908,152.83097 451.91894,147.86221 C 449.29393,142.84661 447.98143,137.05755 447.98144,130.49503 C 447.98143,120.65132 450.77049,112.65914 456.34863,106.51846 C 461.92673,100.33103 469.16891,97.237279 478.07519,97.237213 C 486.65327,97.237279 493.49701,100.23728 498.60644,106.23721 C 503.71575,112.23726 506.27044,120.27632 506.2705,130.3544 L 506.2705,131.97159 M 461.05956,124.30753 L 493.61425,124.30753 C 493.28607,119.19819 491.76264,115.2607 489.04394,112.49503 C 486.32514,109.72945 482.6689,108.34664 478.07519,108.34659 C 473.48141,108.34664 469.70797,109.72945 466.75488,112.49503 C 463.8486,115.2607 461.95017,119.19819 461.05956,124.30753 M 516.88769,158.54971 L 516.88769,144.76846 C 520.49705,147.29973 524.17674,149.36223 527.92675,150.95596 C 531.7236,152.50285 534.9111,153.27629 537.48925,153.27628 C 540.1611,153.27629 542.45797,152.62004 544.37988,151.30753 C 546.30171,149.99504 547.26265,148.42473 547.26269,146.59659 C 547.26265,144.72161 546.62984,143.17473 545.36425,141.95596 C 544.14547,140.69036 541.47359,138.88567 537.34863,136.5419 C 529.09861,131.94818 523.68455,128.03412 521.10644,124.79971 C 518.57518,121.5185 517.30956,117.95601 517.30956,114.11221 C 517.30956,109.14352 519.23143,105.08883 523.07519,101.94815 C 526.9658,98.80759 531.95798,97.237279 538.05175,97.237213 C 544.37984,97.237279 550.87202,99.018527 557.52831,102.58096 L 557.52831,115.23721 C 549.93452,110.64352 543.72359,108.34664 538.8955,108.34659 C 536.4111,108.34664 534.39548,108.8857 532.84863,109.96378 C 531.3486,110.99508 530.59861,112.37789 530.59863,114.11221 C 530.59861,115.61226 531.27829,117.04195 532.63769,118.40128 C 534.04391,119.76069 536.48141,121.40132 539.95019,123.32315 L 544.5205,125.92471 C 555.30171,132.01849 560.69233,138.76849 560.69238,146.17471 C 560.69233,151.4716 558.60639,155.83097 554.43456,159.25284 C 550.30952,162.62784 544.98922,164.31534 538.47363,164.31534 C 534.62985,164.31534 531.20798,163.9169 528.208,163.12003 C 525.20799,162.27628 521.43455,160.75284 516.88769,158.54971 M 572.01269,158.54971 L 572.01269,144.76846 C 575.62205,147.29973 579.30174,149.36223 583.05175,150.95596 C 586.8486,152.50285 590.0361,153.27629 592.61425,153.27628 C 595.2861,153.27629 597.58297,152.62004 599.50488,151.30753 C 601.42671,149.99504 602.38765,148.42473 602.38769,146.59659 C 602.38765,144.72161 601.75484,143.17473 600.48925,141.95596 C 599.27047,140.69036 596.59859,138.88567 592.47363,136.5419 C 584.22361,131.94818 578.80955,128.03412 576.23144,124.79971 C 573.70018,121.5185 572.43456,117.95601 572.43456,114.11221 C 572.43456,109.14352 574.35643,105.08883 578.20019,101.94815 C 582.0908,98.80759 587.08298,97.237279 593.17675,97.237213 C 599.50484,97.237279 605.99702,99.018527 612.65331,102.58096 L 612.65331,115.23721 C 605.05952,110.64352 598.84859,108.34664 594.0205,108.34659 C 591.5361,108.34664 589.52048,108.8857 587.97363,109.96378 C 586.4736,110.99508 585.72361,112.37789 585.72363,114.11221 C 585.72361,115.61226 586.40329,117.04195 587.76269,118.40128 C 589.16891,119.76069 591.60641,121.40132 595.07519,123.32315 L 599.6455,125.92471 C 610.42671,132.01849 615.81733,138.76849 615.81738,146.17471 C 615.81733,151.4716 613.73139,155.83097 609.55956,159.25284 C 605.43452,162.62784 600.11422,164.31534 593.59863,164.31534 C 589.75485,164.31534 586.33298,163.9169 583.333,163.12003 C 580.33299,162.27628 576.55955,160.75284 572.01269,158.54971"
       id="text1872" />
    <path
       style="font-size:32px;font-style:normal;font-variant:normal;font-weight:normal;font-stretch:normal;text-align:start;line-height:125%;writing-mode:lr-tb;text-anchor:start;fill:#6a6a6a;fill-opacity:1;stroke:none;stroke-width:1px;stroke-linecap:butt;stroke-linejoin:miter;stroke-opacity:1;font-family:URW Palladio L"
       d="M 263.08597,171.8306 C 255.78998,171.8306 250.92597,176.56661 250.92597,183.6066 C 250.92597,190.32659 255.59798,195.1586 262.06197,195.1586 C 269.22996,195.1586 274.66997,189.81459 274.66997,182.7746 C 274.66997,176.05461 270.18996,171.8306 263.08597,171.8306 M 262.54197,173.1746 C 268.01396,173.1746 271.24597,177.07861 271.24597,183.7346 C 271.24597,190.07059 268.30196,193.8146 263.34197,193.8146 C 257.96597,193.8146 254.34997,189.27059 254.34997,182.4226 C 254.34997,176.50261 257.29397,173.1746 262.54197,173.1746 M 275.16697,181.7186 L 276.35097,181.7186 C 277.63097,181.7186 277.75897,181.9426 277.75897,184.0546 L 277.75897,200.1506 C 277.75897,202.1666 277.66297,202.3906 276.57497,202.4546 L 275.10297,202.5506 L 275.10297,203.5106 C 278.30297,203.4146 278.30297,203.4146 279.10297,203.4146 C 279.90297,203.4146 279.90297,203.4146 283.10297,203.5106 L 283.10297,202.5506 L 281.63097,202.4546 C 280.54297,202.3906 280.44697,202.1666 280.44697,200.1506 L 280.44697,194.1026 C 281.40697,194.6786 282.43097,194.9026 283.87097,194.9026 C 284.79897,194.9026 285.63097,194.7106 286.14297,194.3906 L 289.79097,192.0226 C 291.07097,191.1906 292.57497,187.8946 292.57497,185.8466 C 292.57497,182.2946 289.63097,179.5106 285.91897,179.5106 C 284.73497,179.5106 283.58297,179.8306 283.07097,180.3106 L 280.44697,182.7106 L 280.44697,179.6386 L 280.15897,179.5106 C 278.52697,180.1826 276.86297,180.6306 275.16697,180.8226 L 275.16697,181.7186 M 280.44697,184.7266 C 280.44697,184.2786 280.60697,183.9266 281.02297,183.3826 C 281.95097,182.1986 283.26297,181.5906 284.86297,181.5906 C 287.87097,181.5906 289.79097,183.7026 289.79097,187.0306 C 289.79097,190.6146 287.64697,193.2706 284.76697,193.2706 C 283.00697,193.2706 281.69497,192.6946 280.44697,191.3826 L 280.44697,184.7266 M 307.70597,192.2786 L 307.28997,191.9586 C 305.24197,193.1746 304.50597,193.4626 303.12997,193.4626 C 301.04997,193.4626 299.32197,192.5346 298.42597,190.9666 C 297.81797,189.9106 297.59397,189.0146 297.52997,187.1586 L 302.20197,187.1586 C 304.40997,187.1586 305.78597,187.0626 307.99397,186.7106 C 308.02597,186.2626 308.05797,185.9746 308.05797,185.5906 C 308.05797,181.9106 305.68997,179.5106 302.10597,179.5106 C 300.92197,179.5106 299.54597,179.9266 298.23397,180.6946 C 295.60997,182.1986 294.55397,184.1826 294.55397,187.5106 C 294.55397,189.5266 295.03397,191.2546 295.89797,192.4706 C 297.17797,194.1666 299.32197,195.1586 301.72197,195.1586 C 302.90597,195.1586 304.08997,194.9026 305.40197,194.3266 C 306.26597,193.9746 306.93797,193.5586 307.06597,193.3666 L 307.70597,192.2786 M 305.20997,185.9746 C 303.54597,186.0386 302.77797,186.0706 301.62597,186.0706 C 300.15397,186.0706 299.32197,186.0386 297.59397,185.8786 C 297.59397,184.3746 297.72197,183.6706 298.13797,182.8386 C 298.80997,181.4306 300.18597,180.5666 301.72197,180.5666 C 302.77797,180.5666 303.60997,180.9826 304.18597,181.8466 C 304.88997,182.9026 305.11397,183.8306 305.20997,185.9746 M 321.90447,194.6146 C 323.85647,194.5186 323.88847,194.5186 324.43247,194.5186 C 324.88047,194.5186 324.88047,194.5186 327.08847,194.6146 L 327.08847,193.6546 L 325.77647,193.5586 C 324.68847,193.4946 324.59247,193.3026 324.59247,191.2546 L 324.59247,185.0786 C 324.59247,181.3346 322.83247,179.5106 319.24847,179.5106 C 318.06447,179.5106 317.39247,179.7346 316.72047,180.3106 L 314.28847,182.4226 L 314.28847,179.6386 L 314.00047,179.5106 C 312.36847,180.1826 310.70447,180.6306 309.00847,180.8226 L 309.00847,181.7186 L 310.19247,181.7186 C 311.47247,181.7186 311.60047,181.9426 311.60047,184.0546 L 311.60047,191.2546 C 311.60047,193.2706 311.50447,193.4946 310.41647,193.5586 L 308.97647,193.6546 L 308.97647,194.6146 C 311.15247,194.5506 312.01647,194.5186 312.94447,194.5186 C 313.87247,194.5186 314.73647,194.5506 316.91247,194.6146 L 316.91247,193.6546 L 315.47247,193.5586 C 314.38447,193.4946 314.28847,193.2706 314.28847,191.2546 L 314.28847,184.4706 C 314.28847,183.0306 316.40047,181.4626 318.35247,181.4626 C 320.49647,181.4626 321.90447,183.0626 321.90447,185.5266 L 321.90447,194.6146 M 341.69647,173.9746 C 342.81647,173.7186 343.74447,173.5906 344.83247,173.5906 C 348.28847,173.5906 350.14447,175.1906 350.14447,178.2306 C 350.14447,181.1106 348.19247,183.1266 345.40847,183.1266 C 344.73647,183.1266 344.25647,183.0626 343.42447,182.8066 L 343.74447,183.9586 C 344.51247,184.1186 344.96047,184.1506 345.60047,184.1506 C 349.98447,184.1506 353.34447,181.1746 353.34447,177.3346 C 353.34447,174.2626 350.84847,172.3746 346.78447,172.3746 C 346.62447,172.3746 346.30447,172.3746 345.88847,172.4066 C 344.70447,172.4386 342.27247,172.4706 341.34447,172.4706 C 340.64047,172.4706 340.64046,172.4706 335.52047,172.3746 L 335.52047,173.3346 L 336.96047,173.4306 C 338.40047,173.5266 338.65647,173.9426 338.65647,176.3106 L 338.65647,190.6786 C 338.65647,193.2066 338.49647,193.4626 337.02447,193.5586 L 335.48847,193.6546 L 335.48847,194.6146 C 337.37647,194.5506 338.49647,194.5186 340.16047,194.5186 C 341.82447,194.5186 342.97647,194.5506 344.86447,194.6146 L 344.86447,193.6546 L 343.32847,193.5586 C 341.85647,193.4626 341.69647,193.2066 341.69647,190.6786 L 341.69647,173.9746 M 369.81797,179.6386 L 369.52997,179.5106 C 367.89797,180.1826 366.23397,180.6306 364.53797,180.8226 L 364.53797,181.7186 L 365.72197,181.7186 C 367.00197,181.7186 367.12997,181.9426 367.12997,184.0546 L 367.12997,189.2706 C 367.12997,189.9746 366.68197,190.8706 365.94597,191.6066 C 365.04997,192.5026 364.02597,192.9506 362.77797,192.9506 C 361.65797,192.9506 360.76197,192.5986 360.24997,191.9906 C 359.80197,191.4786 359.57797,190.4866 359.57797,189.0786 L 359.57797,179.6386 L 359.28997,179.5106 C 357.65797,180.1826 355.99397,180.6306 354.29797,180.8226 L 354.29797,181.7186 L 355.48197,181.7186 C 356.76197,181.7186 356.88997,181.9426 356.88997,184.0546 L 356.88997,189.4306 C 356.88997,191.6706 357.08197,192.6626 357.65797,193.4626 C 358.36197,194.4226 359.57797,194.9026 361.40197,194.9026 C 362.84197,194.9026 364.12197,194.4546 364.98597,193.6546 L 367.12997,191.6706 C 367.12997,192.5986 367.09797,193.1106 367.00197,194.6146 C 369.14597,194.5186 369.17797,194.5186 369.65797,194.5186 C 370.10597,194.5186 370.10597,194.5186 372.31397,194.6146 L 372.31397,193.6546 L 371.00197,193.5586 C 369.91397,193.4946 369.81797,193.3026 369.81797,191.2546 L 369.81797,179.6386 M 377.45947,171.5426 L 377.17147,171.2866 C 375.76347,171.8306 374.70747,172.0866 372.17947,172.4706 L 372.17947,173.3666 L 373.97147,173.3666 C 374.54747,173.3666 374.77147,173.7186 374.77147,174.6786 L 374.77147,189.6226 C 374.77147,191.6066 374.73947,192.4706 374.51547,194.7106 L 375.02747,194.9026 L 376.30747,193.7506 C 377.58747,194.5826 378.73947,194.9026 380.43547,194.9026 C 381.68347,194.9026 382.51547,194.6786 383.18747,194.1986 L 386.38747,191.8946 C 387.79547,190.8706 388.91547,188.2146 388.91547,185.8786 C 388.91547,182.1666 386.51547,179.5106 383.12347,179.5106 C 381.61947,179.5106 380.05147,180.0866 379.21947,180.9186 L 377.45947,182.7106 L 377.45947,171.5426 M 377.45947,184.6626 C 377.45947,184.2146 377.77947,183.6386 378.29147,183.0626 C 379.18747,182.1346 380.43547,181.5906 381.74747,181.5906 C 384.43547,181.5906 386.13147,183.7666 386.13147,187.1906 C 386.13147,190.7746 384.21147,193.2706 381.49147,193.2706 C 379.82747,193.2706 377.45947,192.2466 377.45947,191.5426 L 377.45947,184.6626 M 390.77047,173.3666 L 392.56247,173.3666 C 393.13847,173.3666 393.36247,173.7186 393.36247,174.6786 L 393.36247,191.2546 C 393.36247,193.2706 393.26647,193.4946 392.17847,193.5586 L 390.70647,193.6546 L 390.70647,194.6146 C 393.90647,194.5186 393.90647,194.5186 394.70647,194.5186 C 395.50647,194.5186 395.50647,194.5186 398.70647,194.6146 L 398.70647,193.6546 L 397.23447,193.5586 C 396.14647,193.4946 396.05047,193.2706 396.05047,191.2546 L 396.05047,171.5426 L 395.76247,171.2866 C 394.35447,171.8306 393.29847,172.0866 390.77047,172.4706 L 390.77047,173.3666 M 405.17547,179.6386 L 404.88747,179.5106 C 403.25547,180.1826 401.59147,180.6306 399.89547,180.8226 L 399.89547,181.7186 L 401.07947,181.7186 C 402.35947,181.7186 402.48747,181.9426 402.48747,184.0546 L 402.48747,191.2546 C 402.48747,193.2706 402.39147,193.4946 401.30347,193.5586 L 399.83147,193.6546 L 399.83147,194.6146 C 403.03147,194.5186 403.03147,194.5186 403.83147,194.5186 C 404.63147,194.5186 404.63147,194.5186 407.83147,194.6146 L 407.83147,193.6546 L 406.35947,193.5586 C 405.27147,193.4946 405.17547,193.2706 405.17547,191.2546 L 405.17547,179.6386 M 403.70347,172.5346 C 402.74347,172.5346 401.91147,173.3666 401.91147,174.3266 C 401.91147,175.2546 402.74347,176.0866 403.67147,176.0866 C 404.59947,176.0866 405.46347,175.2546 405.46347,174.3266 C 405.46347,173.4306 404.59947,172.5346 403.70347,172.5346 M 409.59647,189.9426 C 409.59647,192.1506 409.50047,193.1106 409.24447,194.3906 C 410.90847,194.9346 412.15647,195.1586 413.62847,195.1586 C 417.82047,195.1586 420.79647,192.9186 420.79647,189.7826 C 420.79647,188.7906 420.50847,188.0546 419.90047,187.4146 C 419.06847,186.6146 418.01247,186.2306 415.19647,185.6866 C 412.57247,185.1746 411.70847,184.5346 411.70847,183.0626 C 411.70847,181.4626 412.82847,180.5666 414.78047,180.5666 C 416.92447,180.5666 418.55647,181.6866 418.55647,183.1906 L 418.55647,183.9266 L 419.45247,183.9266 C 419.48447,182.0706 419.51647,181.3026 419.61247,180.3106 C 417.91647,179.7346 416.76447,179.5106 415.45247,179.5106 C 411.74047,179.5106 409.46847,181.2706 409.46847,184.1506 C 409.46847,185.6866 410.17247,186.7746 411.64447,187.4466 C 412.50847,187.8306 414.20447,188.3426 416.38047,188.8226 C 417.82047,189.1426 418.42847,189.8146 418.42847,191.0306 C 418.42847,192.7586 416.82847,193.9746 414.55647,193.9746 C 412.22047,193.9746 410.55647,192.8546 410.55647,191.2546 L 410.55647,189.9426 L 409.59647,189.9426 M 421.88347,173.3666 L 423.67547,173.3666 C 424.25147,173.3666 424.47547,173.7186 424.47547,174.6786 L 424.47547,191.2546 C 424.47547,193.2706 424.37947,193.4946 423.29147,193.5586 L 421.85147,193.6546 L 421.85147,194.6146 C 424.02747,194.5506 424.89147,194.5186 425.81947,194.5186 C 426.74747,194.5186 427.61147,194.5506 429.78747,194.6146 L 429.78747,193.6546 L 428.34747,193.5586 C 427.25947,193.4946 427.16347,193.2706 427.16347,191.2546 L 427.16347,184.4706 C 427.16347,183.0306 429.27547,181.4626 431.22747,181.4626 C 433.37147,181.4626 434.77947,183.0626 434.77947,185.5266 L 434.77947,194.6146 C 436.73147,194.5186 436.76347,194.5186 437.30747,194.5186 C 437.75547,194.5186 437.75547,194.5186 439.96347,194.6146 L 439.96347,193.6546 L 438.65147,193.5586 C 437.56347,193.4946 437.46747,193.3026 437.46747,191.2546 L 437.46747,185.0786 C 437.46747,181.3346 435.70747,179.5106 432.12347,179.5106 C 430.93947,179.5106 430.26747,179.7346 429.59547,180.3106 L 427.16347,182.4226 L 427.16347,171.5426 L 426.87547,171.2866 C 425.46747,171.8306 424.41147,172.0866 421.88347,172.4706 L 421.88347,173.3666 M 445.92547,179.6386 L 445.63747,179.5106 C 444.00547,180.1826 442.34147,180.6306 440.64547,180.8226 L 440.64547,181.7186 L 441.82947,181.7186 C 443.10947,181.7186 443.23747,181.9426 443.23747,184.0546 L 443.23747,191.2546 C 443.23747,193.2706 443.14147,193.4946 442.05347,193.5586 L 440.58147,193.6546 L 440.58147,194.6146 C 443.78147,194.5186 443.78147,194.5186 444.58147,194.5186 C 445.38147,194.5186 445.38147,194.5186 448.58147,194.6146 L 448.58147,193.6546 L 447.10947,193.5586 C 446.02147,193.4946 445.92547,193.2706 445.92547,191.2546 L 445.92547,179.6386 M 444.45347,172.5346 C 443.49347,172.5346 442.66147,173.3666 442.66147,174.3266 C 442.66147,175.2546 443.49347,176.0866 444.42147,176.0866 C 445.34947,176.0866 446.21347,175.2546 446.21347,174.3266 C 446.21347,173.4306 445.34947,172.5346 444.45347,172.5346 M 462.15447,194.6146 C 464.10647,194.5186 464.13847,194.5186 464.68247,194.5186 C 465.13047,194.5186 465.13047,194.5186 467.33847,194.6146 L 467.33847,193.6546 L 466.02647,193.5586 C 464.93847,193.4946 464.84247,193.3026 464.84247,191.2546 L 464.84247,185.0786 C 464.84247,181.3346 463.08247,179.5106 459.49847,179.5106 C 458.31447,179.5106 457.64247,179.7346 456.97047,180.3106 L 454.53847,182.4226 L 454.53847,179.6386 L 454.25047,179.5106 C 452.61847,180.1826 450.95447,180.6306 449.25847,180.8226 L 449.25847,181.7186 L 450.44247,181.7186 C 451.72247,181.7186 451.85047,181.9426 451.85047,184.0546 L 451.85047,191.2546 C 451.85047,193.2706 451.75447,193.4946 450.66647,193.5586 L 449.22647,193.6546 L 449.22647,194.6146 C 451.40247,194.5506 452.26647,194.5186 453.19447,194.5186 C 454.12247,194.5186 454.98647,194.5506 457.16247,194.6146 L 457.16247,193.6546 L 455.72247,193.5586 C 454.63447,193.4946 454.53847,193.2706 454.53847,191.2546 L 454.53847,184.4706 C 454.53847,183.0306 456.65047,181.4626 458.60247,181.4626 C 460.74647,181.4626 462.15447,183.0626 462.15447,185.5266 L 462.15447,194.6146 M 483.82997,182.4226 L 484.62997,181.1106 L 484.50197,180.7266 L 479.95797,180.8546 C 478.77397,179.8946 477.62197,179.5106 476.05397,179.5106 C 474.64597,179.5106 473.01397,179.9586 471.70197,180.7266 C 469.90997,181.7506 468.98197,183.3186 468.98197,185.2706 C 468.98197,187.6386 470.45397,189.2706 472.82197,189.5266 L 470.29397,191.4786 C 469.97397,191.9586 469.81397,192.3746 469.81397,192.8546 C 469.81397,193.7506 470.38997,194.2626 471.92597,194.7106 L 469.14197,196.2146 C 468.69397,196.4706 468.24597,197.6546 468.24597,198.6466 C 468.24597,201.5586 471.09397,203.5746 475.15797,203.5746 C 479.98996,203.5746 483.79797,200.5346 483.79797,196.6306 C 483.79797,194.3266 482.26197,192.7266 480.02197,192.7266 L 474.90197,192.7266 C 473.23797,192.7266 472.46997,192.3426 472.46997,191.4786 C 472.46997,191.0626 472.72597,190.7106 473.55797,190.0066 C 473.74997,189.8466 473.81397,189.7826 473.94197,189.6546 C 474.26197,189.6866 474.45397,189.7186 474.70997,189.7186 C 476.08597,189.7186 477.78197,189.1106 479.09397,188.1826 C 480.53397,187.1266 481.23797,185.8466 481.23797,184.1506 C 481.23797,183.5106 481.14197,183.0946 480.88597,182.4226 L 483.82997,182.4226 M 474.90197,180.5986 C 477.07797,180.5986 478.54997,182.3906 478.54997,185.1106 C 478.54997,187.1906 477.20597,188.6306 475.25397,188.6306 C 473.10997,188.6306 471.66997,186.9666 471.66997,184.5026 C 471.66997,182.0386 472.85397,180.5986 474.90197,180.5986 M 476.40597,194.9666 C 480.02197,194.9666 481.26997,195.7026 481.26997,197.7826 C 481.26997,200.5346 478.74197,202.5826 475.38197,202.5826 C 472.59797,202.5826 470.67797,200.9506 470.67797,198.5826 C 470.67797,197.1426 471.50997,195.8306 472.78997,195.2866 C 473.30197,195.0306 474.19797,194.9666 476.40597,194.9666 M 499.38397,173.9746 C 500.50397,173.7186 501.43197,173.5906 502.51997,173.5906 C 505.97597,173.5906 507.83197,175.1906 507.83197,178.2306 C 507.83197,181.1106 505.87997,183.1266 503.09597,183.1266 C 502.42397,183.1266 501.94397,183.0626 501.11197,182.8066 L 501.43197,183.9586 C 502.19997,184.1186 502.64797,184.1506 503.28797,184.1506 C 507.67197,184.1506 511.03197,181.1746 511.03197,177.3346 C 511.03197,174.2626 508.53597,172.3746 504.47197,172.3746 C 504.31197,172.3746 503.99197,172.3746 503.57597,172.4066 C 502.39197,172.4386 499.95997,172.4706 499.03197,172.4706 C 498.32797,172.4706 498.32796,172.4706 493.20797,172.3746 L 493.20797,173.3346 L 494.64797,173.4306 C 496.08797,173.5266 496.34397,173.9426 496.34397,176.3106 L 496.34397,190.6786 C 496.34397,193.2066 496.18397,193.4626 494.71197,193.5586 L 493.17597,193.6546 L 493.17597,194.6146 C 495.06397,194.5506 496.18397,194.5186 497.84797,194.5186 C 499.51197,194.5186 500.66397,194.5506 502.55197,194.6146 L 502.55197,193.6546 L 501.01597,193.5586 C 499.54397,193.4626 499.38397,193.2066 499.38397,190.6786 L 499.38397,173.9746 M 512.14547,173.3666 L 513.93747,173.3666 C 514.51347,173.3666 514.73747,173.7186 514.73747,174.6786 L 514.73747,191.2546 C 514.73747,193.2706 514.64147,193.4946 513.55347,193.5586 L 512.08147,193.6546 L 512.08147,194.6146 C 515.28147,194.5186 515.28147,194.5186 516.08147,194.5186 C 516.88147,194.5186 516.88147,194.5186 520.08147,194.6146 L 520.08147,193.6546 L 518.60947,193.5586 C 517.52147,193.4946 517.42547,193.2706 517.42547,191.2546 L 517.42547,171.5426 L 517.13747,171.2866 C 515.72947,171.8306 514.67347,172.0866 512.14547,172.4706 L 512.14547,173.3666 M 530.90247,191.8946 L 530.74247,194.6146 C 532.82247,194.5186 532.82247,194.5186 533.23847,194.5186 C 533.39847,194.5186 534.19847,194.5506 535.60647,194.6146 L 535.60647,193.6546 L 534.35847,193.5906 C 533.59047,193.5586 533.46247,193.3026 533.46247,191.7346 L 533.46247,185.8786 C 533.46247,181.20661 532.11847,179.5106 528.40647,179.5106 C 527.03047,179.5106 525.75047,179.8626 524.53447,180.5986 L 522.83847,181.6226 L 522.83847,183.7026 L 523.67047,183.9266 L 524.08647,182.9346 C 524.75847,181.4306 525.07847,181.2066 526.55047,181.2066 C 529.55847,181.2066 530.80647,182.3906 530.90247,185.3026 L 527.73447,185.8786 C 523.38247,186.6786 521.55847,188.1826 521.55847,190.9666 C 521.55847,193.4626 523.06247,194.9026 525.59047,194.9026 C 526.16647,194.9026 526.71047,194.8066 526.93447,194.6466 L 530.90247,191.8946 M 530.90247,190.5506 C 529.97447,191.8626 527.95847,193.0786 526.71047,193.0786 C 525.43047,193.0786 524.31047,191.8946 524.31047,190.5186 C 524.31047,189.3346 524.95047,188.2146 525.91047,187.6066 C 526.71047,187.1266 528.47047,186.6786 530.90247,186.3266 L 530.90247,190.5506 M 539.35797,182.2946 L 539.35797,191.5106 C 539.35797,193.8786 540.41397,194.9026 542.87797,194.9026 C 543.61397,194.9026 544.38197,194.7426 544.57397,194.5186 L 546.10997,192.8226 L 545.69397,192.2786 C 544.89397,192.7266 544.41397,192.8866 543.80597,192.8866 C 542.55797,192.8866 542.04597,192.2466 542.04597,190.6786 L 542.04597,182.2946 L 546.14197,182.2946 L 546.42997,180.5666 L 542.04597,180.7586 L 542.04597,179.5426 C 542.04597,178.1986 542.14197,177.0466 542.39797,174.9986 L 542.01397,174.6466 C 541.24597,175.1266 540.28597,175.5426 539.29397,175.8626 C 539.38997,176.8226 539.42197,177.4306 539.42197,178.3906 L 539.42197,180.6306 L 536.92597,181.7506 L 536.92597,182.4226 L 539.35797,182.2946 M 557.32147,171.5746 C 556.64947,171.3186 556.26547,171.2226 555.84947,171.2226 C 554.82547,171.2226 553.70547,171.7666 553.00147,172.5666 L 551.14547,174.6786 C 550.21747,175.7346 549.80147,177.1746 549.80147,179.2866 L 549.80147,180.6306 L 547.59347,181.6226 L 547.59347,182.3266 L 549.80147,182.1986 L 549.80147,191.2546 C 549.80147,193.2706 549.70547,193.4946 548.61747,193.5586 L 547.14547,193.6546 L 547.14547,194.6146 C 550.34547,194.5186 550.34547,194.5186 551.14547,194.5186 C 551.94547,194.5186 551.94547,194.5186 555.14547,194.6146 L 555.14547,193.6546 L 553.67347,193.5586 C 552.58547,193.4946 552.48947,193.2706 552.48947,191.2546 L 552.48947,182.1986 L 556.45747,182.1986 L 556.68147,180.5026 L 552.48947,180.6306 L 552.48947,177.9106 C 552.48947,174.2306 552.90547,173.3346 554.72947,173.3346 C 555.59347,173.3346 556.16947,173.5586 556.93747,174.2306 L 557.32147,174.0386 L 557.32147,171.5746 M 565.83747,179.5106 C 561.16547,179.5106 557.93347,182.80661 557.93347,187.5746 C 557.93347,192.0866 560.78147,195.1586 564.90947,195.1586 C 569.83746,195.1586 573.35747,191.7346 573.35747,186.9346 C 573.35747,182.6146 570.22147,179.5106 565.83747,179.5106 M 565.26147,180.5666 C 568.20547,180.5666 570.38147,183.7666 570.38147,188.1186 C 570.38147,191.7986 568.74947,194.1026 566.15747,194.1026 C 563.02147,194.1026 560.90947,191.0306 560.90947,186.4866 C 560.90947,182.6466 562.44547,180.5666 565.26147,180.5666 M 574.77047,181.7186 L 575.95447,181.7186 C 577.23447,181.7186 577.36247,181.9426 577.36247,184.0546 L 577.36247,191.2546 C 577.36247,193.2706 577.26647,193.4946 576.17847,193.5586 L 574.70647,193.6546 L 574.70647,194.6146 C 577.01047,194.5506 577.84247,194.5186 578.64247,194.5186 C 579.28247,194.5186 579.28247,194.5186 583.21847,194.6146 L 583.21847,193.6546 L 581.55447,193.5586 C 580.11447,193.4626 580.05047,193.3666 580.05047,191.2546 L 580.05047,185.7506 C 580.05047,183.8306 581.33047,182.2306 582.89847,182.2306 C 583.85847,182.2306 584.53047,182.6786 585.04247,183.7026 L 585.71447,183.7026 L 586.00247,179.8626 C 585.65047,179.6386 585.07447,179.5106 584.49847,179.5106 C 583.53847,179.5106 582.51447,180.0226 581.84247,180.8226 L 580.05047,182.9346 L 580.05047,179.6386 L 579.76247,179.5106 C 578.13047,180.1826 576.46647,180.6306 574.77047,180.8226 L 574.77047,181.7186 M 587.04797,181.7186 L 588.23197,181.7186 C 589.51197,181.7186 589.63997,181.9426 589.63997,184.0546 L 589.63997,191.2546 C 589.63997,193.2706 589.54397,193.4946 588.45597,193.5586 L 586.98397,193.6546 L 586.98397,194.6146 C 590.05597,194.5186 590.15197,194.5186 591.04797,194.5186 C 591.94397,194.5186 592.77597,194.5506 594.85597,194.6146 L 594.85597,193.6546 L 593.51197,193.5586 C 592.42397,193.4946 592.32797,193.2706 592.32797,191.2546 L 592.32797,184.4706 C 592.32797,183.0306 594.43997,181.4626 596.35997,181.4626 C 598.08797,181.4626 599.27197,183.0946 599.27197,185.5266 L 599.27197,191.2546 C 599.27197,193.2706 599.17597,193.4946 598.08797,193.5586 L 596.61597,193.6546 L 596.61597,194.6146 C 599.81597,194.5186 599.81597,194.5186 600.61597,194.5186 C 601.41597,194.5186 601.41597,194.5186 604.61597,194.6146 L 604.61597,193.6546 L 603.14397,193.5586 C 602.05597,193.4946 601.95997,193.2706 601.95997,191.2546 L 601.95997,184.4706 C 601.95997,183.0306 604.07197,181.4626 605.99197,181.4626 C 607.71997,181.4626 608.90397,183.0946 608.90397,185.5266 L 608.90397,194.6146 C 610.85597,194.5186 610.88797,194.5186 611.43197,194.5186 C 611.84797,194.5186 611.84797,194.5186 614.27997,194.6146 L 614.27997,193.6546 L 612.77597,193.5586 C 611.68797,193.4946 611.59197,193.2706 611.59197,191.2546 L 611.59197,184.6626 C 611.59197,181.4946 609.73597,179.5106 606.79197,179.5106 C 605.67197,179.5106 604.74397,179.7986 604.16797,180.3106 L 601.73597,182.4866 C 600.71197,180.3746 599.39997,179.5106 597.19197,179.5106 C 596.00797,179.5106 595.11197,179.7986 594.53597,180.3106 L 592.32797,182.3586 L 592.32797,179.6386 L 592.03997,179.5106 C 590.40797,180.1826 588.74397,180.6306 587.04797,180.8226 L 587.04797,181.7186"
       id="text1880" />
    <text
       xml:space="preserve"
       style="font-size:12px;font-style:normal;font-weight:normal;fill:black;fill-opacity:1;stroke:none;stroke-width:1px;stroke-linecap:butt;stroke-linejoin:miter;stroke-opacity:1;font-family:Bitstream Vera Sans"
       x="200.71429"
       y="185.71429"
       id="text6342"
       transform="translate(22.69223,16.51978)"><tspan
         sodipodi:role="line"
         id="tspan6344"
         x="200.71429"
         y="185.71429"></tspan></text>
  </g>
</svg>
